# This file uses centimeters as units for non-parametric coordinates.

mtllib CrossRoad.mtl
g default
v -97.833916 -3.298162 96.893097
v 98.609535 -3.298162 96.893097
v -97.833916 -0.866717 96.893097
v 98.609535 -0.866717 96.893097
v -97.833916 -0.866717 62.377975
v 98.609535 -0.866717 62.377975
v -97.833916 -3.298156 62.377975
v 98.609535 -3.298157 62.377975
v -97.833916 -3.298162 -65.035263
v 98.609535 -3.298162 -65.035263
v -97.833916 -0.866717 -65.035263
v 98.609535 -0.866717 -65.035263
v -97.833916 -0.866717 -99.550369
v 98.609535 -0.866717 -99.550369
v -97.833916 -3.298162 -99.550369
v 98.609535 -3.298162 -99.550369
v -97.833916 -3.298161 -1.328644
v 98.609535 -3.298161 -1.328644
v -97.833916 -35.657730 96.893097
v 98.609535 -35.657730 96.893097
v -97.833916 -35.657730 62.377975
v 98.609535 -35.657730 62.377975
v -97.833916 -35.657730 -99.550369
v 98.609535 -35.657730 -99.550369
v -97.833916 -35.657730 -65.035263
v 98.609535 -35.657730 -65.035263
v -97.833916 -35.657730 -1.328644
v 98.609535 -35.657730 -1.328644
v -19.742849 -35.657730 -99.550369
v -19.742849 -3.298162 -99.550369
v -19.742849 -3.298162 96.893097
v -19.742849 -35.657730 96.893097
v 63.562366 -35.657730 -99.550369
v 63.562366 -3.298162 -99.550369
v 63.562366 -0.866717 -99.550369
v 65.026184 -0.866717 -66.505219
v 65.026184 -3.298162 -66.505219
v 65.026184 -3.298161 -1.328644
v 65.026184 -3.298162 63.847931
v 65.026184 -0.866717 63.847931
v 63.562366 -0.866717 96.893097
v 63.562366 -3.298162 96.893097
v 63.562366 -35.657730 96.893097
v -63.318779 -35.657730 -99.550369
v -63.318779 -3.298162 -99.550369
v -63.318779 -0.866717 -99.550369
v -64.782593 -0.866717 -66.505219
v -64.782600 -3.298162 -66.505219
v -64.782600 -3.298161 -1.328644
v -64.782600 -3.298162 63.847931
v -64.782593 -0.866717 63.847931
v -63.318775 -0.866717 96.893097
v -63.318779 -3.298162 96.893097
v -63.318779 -35.657730 96.893097
v -97.833916 -35.657730 -68.540604
v -97.833916 -3.298162 -68.540604
v -97.833916 -0.866717 -68.540604
v -63.318779 -0.866717 -68.540604
v -63.318779 -3.298162 -68.540604
v 63.562366 -3.298162 -68.540604
v 63.562366 -0.866717 -68.540604
v 98.609535 -0.866717 -68.540604
v 98.609535 -3.298162 -68.540604
v 98.609535 -35.657730 -68.540604
v -97.833916 -35.657730 65.883301
v -97.833916 -3.298159 65.883301
v -97.833916 -0.866717 65.883301
v -63.318775 -0.866717 65.883301
v -63.318779 -3.298162 65.883301
v 63.562366 -3.298162 65.883301
v 63.562366 -0.866717 65.883301
v 98.609535 -0.866717 65.883301
v 98.609535 -3.298159 65.883301
v 98.609535 -35.657730 65.883301
v -66.134155 -35.657730 -99.550369
v -66.134155 -3.298162 -99.550369
v -66.134155 -0.866717 -99.550369
v -66.134155 -0.866717 -68.540604
v -66.134155 -0.866717 -65.035263
v -66.134155 -3.298162 -65.035263
v -66.134148 -3.298161 -1.328644
v -66.134155 -3.298159 62.377975
v -66.134148 -0.866717 62.377975
v -66.134148 -0.866717 65.883301
v -66.134148 -0.866717 96.893097
v -66.134155 -3.298162 96.893097
v -66.134155 -35.657730 96.893097
v 66.643761 -35.657730 -99.550369
v 66.643761 -3.298162 -99.550369
v 66.643761 -0.866717 -99.550369
v 66.643761 -0.866717 -68.540604
v 66.643761 -0.866717 -65.035263
v 66.643761 -3.298162 -65.035263
v 66.643761 -3.298161 -1.328644
v 66.643761 -3.298159 62.377975
v 66.643761 -0.866717 62.377975
v 66.643761 -0.866717 65.883301
v 66.643761 -0.866717 96.893097
v 66.643761 -3.298162 96.893097
v 66.643761 -35.657730 96.893097
v 0.121794 -3.298162 -99.550369
v 0.121794 -3.298162 -68.540604
v 0.121792 -3.298162 -66.505219
v 0.121790 -3.298161 -1.328644
v 0.121792 -3.298162 63.847931
v 0.121794 -3.298162 65.883301
v 0.121794 -3.298162 96.893097
vt 0.375000 0.000000
vt 0.625000 0.000000
vt 0.375000 0.250000
vt 0.625000 0.250000
vt 0.375000 0.500000
vt 0.625000 0.500000
vt 0.875000 0.209612
vt 0.875000 0.250000
vt 0.125000 0.209612
vt 0.125000 0.250000
vt 0.375000 0.000000
vt 0.625000 0.000000
vt 0.625000 0.250000
vt 0.375000 0.250000
vt 0.625000 0.500000
vt 0.375000 0.500000
vt 0.625000 0.750000
vt 0.375000 0.750000
vt 0.875000 0.000000
vt 0.875000 0.250000
vt 0.125000 0.000000
vt 0.125000 0.250000
vt 0.000000 0.000000
vt 1.000000 0.000000
vt 1.000000 1.602028
vt 0.000000 1.602028
vt 0.000000 0.811669
vt 1.000000 0.811669
vt 0.000000 0.000000
vt 1.000000 0.000000
vt 1.000000 1.000000
vt 0.000000 1.000000
vt 0.000000 0.000000
vt 1.000000 -0.050551
vt 1.000000 1.000000
vt 0.000000 1.000000
vt 0.000000 -0.050551
vt 1.000000 0.000000
vt 1.000000 1.000000
vt 0.000000 1.000000
vt 0.000000 0.000000
vt 1.000000 0.000000
vt 1.000000 1.000000
vt 0.000000 1.000000
vt 0.000000 0.000000
vt 1.000000 0.000000
vt 1.000000 1.000000
vt 0.000000 1.000000
vt 0.000000 0.000000
vt 1.000000 0.000000
vt 1.000000 1.000000
vt 0.000000 1.000000
vt 0.000000 0.000000
vt 1.000000 0.000000
vt 1.000000 1.000000
vt 0.000000 1.000000
vt 0.000000 0.000000
vt 1.000000 0.000000
vt 1.000000 1.000000
vt 0.000000 1.000000
vt 0.000000 -0.806266
vt 1.000000 0.000000
vt 1.000000 1.000000
vt 0.000000 -0.000000
vt 0.000000 0.000000
vt 1.000000 -0.806266
vt 1.000000 -0.000000
vt 0.000000 1.000000
vt 0.500000 1.000000
vt 0.500000 0.000000
vt 0.500000 0.250000
vt 0.500000 0.250000
vt 0.500000 0.000000
vt 0.500000 1.000000
vt 0.750000 1.000000
vt 0.797057 0.000000
vt 0.562500 0.749998
vt 0.562500 0.500000
vt 0.562500 0.250000
vt 0.782422 0.000000
vt 0.750000 0.811669
vt 0.775534 1.587378
vt 0.562500 0.500000
vt 0.562500 0.250000
vt 0.562500 0.000002
vt 0.202943 0.000000
vt 0.250000 1.000000
vt 0.250000 1.000000
vt 0.237266 -0.000000
vt 0.437500 0.749998
vt 0.437500 0.500000
vt 0.437500 0.250000
vt 0.239849 0.000000
vt 0.250000 0.811669
vt 0.224466 1.587378
vt 0.437500 0.500000
vt 0.437500 0.250000
vt 0.437500 0.000002
vt 0.762734 -0.000000
vt 0.750000 1.000000
vt 0.425266 0.500000
vt 0.437500 0.250000
vt 0.500000 0.250000
vt 0.437500 0.500000
vt 0.425266 0.250000
vt 0.500000 0.250000
vt 0.562500 0.250000
vt 0.586739 0.500000
vt 0.585671 0.250000
vt 0.562500 0.500000
vt 0.000000 0.046875
vt 1.000000 0.046875
vt 1.000000 0.000000
vt 0.000000 0.000000
vt 0.000000 0.046875
vt 1.000000 0.046875
vt 1.000000 0.000000
vt 0.000000 0.000000
vt 0.000000 0.000000
vt 1.000000 0.000000
vt 1.000000 0.046875
vt 0.000000 0.046875
vt 0.000000 0.000000
vt 1.000000 0.000000
vt 1.000000 0.046875
vt 0.000000 0.046875
vt 0.500000 1.000000
vt 0.250000 0.000000
vt 0.500000 0.000000
vt 0.250000 0.250000
vt 0.375000 0.375000
vt 0.437500 0.375000
vt 0.431383 0.375000
vt 0.462633 0.250000
vt 0.574620 0.375000
vt 0.562500 0.375000
vt 0.468750 0.250000
vt 0.625000 0.375000
vt 0.750000 0.250000
vt 0.500000 0.000000
vt 0.750000 0.000000
vt 0.500000 1.000000
vt 0.500000 1.000000
vt 0.250000 0.104806
vt 0.500000 -0.025276
vt 0.250000 0.250000
vt 0.375000 0.375000
vt 0.531250 0.250000
vt 0.437500 0.375000
vt 0.431383 0.375000
vt 0.531250 0.250000
vt 0.574086 0.375000
vt 0.562500 0.375000
vt 0.625000 0.375000
vt 0.750000 0.250000
vt 0.500000 -0.025276
vt 0.750000 0.104806
vt 0.500000 1.000000
vt 0.125000 1.000000
vt 0.118633 -0.000000
vt 0.406250 0.749999
vt 0.406250 0.500000
vt 0.406250 0.375000
vt 0.406250 0.250000
vt 0.500000 0.046875
vt 0.500000 0.000000
vt 0.119925 0.000000
vt 0.125000 0.811669
vt 0.112233 1.594703
vt 0.500000 0.046875
vt 0.500000 0.000000
vt 0.406250 0.500000
vt 0.406250 0.375000
vt 0.406250 0.250000
vt 0.406250 0.000001
vt 0.881367 -0.000000
vt 0.875000 1.000000
vt 0.875000 1.000000
vt 0.898528 0.000000
vt 0.593750 0.749999
vt 0.593750 0.500000
vt 0.593750 0.375000
vt 0.593750 0.250000
vt 0.500000 0.046875
vt 0.500000 0.000000
vt 0.891211 0.000000
vt 0.875000 0.811669
vt 0.887767 1.594703
vt 0.500000 0.046875
vt 0.500000 0.000000
vt 0.593750 0.500000
vt 0.593750 0.375000
vt 0.593750 0.250000
vt 0.593750 0.000001
vt 0.101472 0.000000
vt 0.125000 1.000000
vt 0.506003 0.500000
vt 0.503001 0.375000
vt 0.500000 0.250000
vt 0.511136 0.000000
vt 0.500000 0.811669
vt 0.500000 1.587378
vt 0.500000 0.500000
vt 0.502734 0.375000
vt 0.505469 0.250000
vn 0.000000 0.000000 1.000000
vn 0.000000 0.000000 1.000000
vn 0.000000 0.000000 1.000000
vn 0.000000 0.000000 1.000000
vn 0.000000 1.000000 0.000000
vn 0.000000 1.000000 0.000000
vn 0.000000 1.000000 0.000000
vn 0.000000 1.000000 0.000000
vn 1.000000 0.000000 0.000000
vn 1.000000 0.000000 0.000000
vn 1.000000 0.000000 0.000000
vn 1.000000 0.000000 0.000000
vn -1.000000 0.000000 0.000000
vn -1.000000 0.000000 0.000000
vn -1.000000 0.000000 0.000000
vn -1.000000 0.000000 0.000000
vn 0.000000 1.000000 0.000000
vn 0.000000 1.000000 -0.000000
vn 0.000000 1.000000 0.000000
vn 0.000000 1.000000 0.000000
vn 0.000000 0.000000 -1.000000
vn 0.000000 0.000000 -1.000000
vn 0.000000 0.000000 -1.000000
vn 0.000000 0.000000 -1.000000
vn 1.000000 0.000000 0.000000
vn 1.000000 0.000000 0.000000
vn 1.000000 0.000000 0.000000
vn 1.000000 0.000000 0.000000
vn -1.000000 0.000000 0.000000
vn -1.000000 0.000000 0.000000
vn -1.000000 0.000000 0.000000
vn -1.000000 0.000000 0.000000
vn 0.000000 1.000000 -0.000000
vn 0.000000 1.000000 -0.000000
vn 0.000000 1.000000 -0.000000
vn 0.000000 1.000000 -0.000000
vn -0.000000 1.000000 -0.000000
vn -0.000000 1.000000 -0.000000
vn -0.000000 1.000000 -0.000000
vn -0.000000 1.000000 -0.000000
vn 0.000000 0.000000 1.000000
vn 0.000000 0.000000 1.000000
vn 0.000000 0.000000 1.000000
vn 0.000000 0.000000 1.000000
vn -1.000000 0.000000 0.000000
vn -1.000000 0.000000 0.000000
vn -1.000000 0.000000 0.000000
vn -1.000000 0.000000 0.000000
vn 1.000000 0.000000 0.000000
vn 1.000000 0.000000 0.000000
vn 1.000000 0.000000 0.000000
vn 1.000000 0.000000 0.000000
vn 0.000000 0.000000 -1.000000
vn 0.000000 0.000000 -1.000000
vn 0.000000 0.000000 -1.000000
vn 0.000000 0.000000 -1.000000
vn -1.000000 0.000000 0.000000
vn -1.000000 0.000000 0.000000
vn -1.000000 0.000000 0.000000
vn -1.000000 0.000000 0.000000
vn 1.000000 0.000000 0.000000
vn 1.000000 0.000000 0.000000
vn 1.000000 0.000000 0.000000
vn 1.000000 0.000000 0.000000
vn -1.000000 0.000000 0.000000
vn -1.000000 0.000000 0.000000
vn -1.000000 0.000000 0.000000
vn -1.000000 0.000000 0.000000
vn 1.000000 0.000000 0.000000
vn 1.000000 0.000000 0.000000
vn 1.000000 0.000000 0.000000
vn 1.000000 0.000000 0.000000
vn -1.000000 0.000000 0.000000
vn -1.000000 0.000000 0.000000
vn -1.000000 0.000000 0.000000
vn -1.000000 0.000000 0.000000
vn 1.000000 0.000000 0.000000
vn 1.000000 0.000000 0.000000
vn 1.000000 0.000000 0.000000
vn 1.000000 0.000000 0.000000
vn 0.000000 0.000000 -1.000000
vn 0.000000 0.000000 -1.000000
vn 0.000000 0.000000 -1.000000
vn 0.000000 0.000000 -1.000000
vn 0.000000 0.000000 1.000000
vn 0.000000 0.000000 1.000000
vn 0.000000 0.000000 1.000000
vn 0.000000 0.000000 1.000000
vn 0.000000 0.000000 -1.000000
vn 0.000000 0.000000 -1.000000
vn 0.000000 1.000000 -0.000000
vn 0.000000 1.000000 -0.000000
vn 0.000000 1.000000 -0.000000
vn 0.000000 1.000000 -0.000000
vn 0.000000 1.000000 0.000000
vn 0.000000 1.000000 0.000000
vn 0.000000 1.000000 0.000000
vn 0.000000 1.000000 -0.000000
vn -0.000000 1.000000 -0.000000
vn -0.000000 1.000000 -0.000000
vn 0.000000 1.000000 0.000000
vn 0.000000 1.000000 -0.000000
vn 0.000000 1.000000 0.000000
vn 0.000000 1.000000 0.000000
vn 0.000000 1.000000 0.000000
vn 0.000000 1.000000 0.000000
vn 0.000000 0.000000 1.000000
vn 0.000000 0.000000 1.000000
vn 0.000000 0.000000 -1.000000
vn 0.000000 0.000000 -1.000000
vn 0.000000 0.000000 -1.000000
vn 0.000000 0.000000 -1.000000
vn 0.000000 0.000000 -1.000000
vn 0.000000 0.000000 -1.000000
vn 0.000000 1.000000 0.000000
vn 0.000000 1.000000 0.000000
vn 0.000000 1.000000 0.000000
vn 0.000000 1.000000 0.000000
vn -0.000000 1.000000 -0.000000
vn -0.000000 1.000000 -0.000000
vn -0.000000 1.000000 -0.000000
vn -0.000000 1.000000 -0.000000
vn 0.000000 1.000000 0.000000
vn 0.000000 1.000000 0.000000
vn 0.000000 1.000000 -0.000000
vn 0.000000 1.000000 -0.000000
vn 0.000000 1.000000 0.000000
vn 0.000000 1.000000 0.000000
vn 0.000000 1.000000 0.000000
vn 0.000000 1.000000 0.000000
vn 0.000000 0.000000 1.000000
vn 0.000000 0.000000 1.000000
vn 0.000000 0.000000 1.000000
vn 0.000000 0.000000 1.000000
vn 0.000000 0.000000 1.000000
vn 0.000000 0.000000 1.000000
vn 1.000000 0.000000 0.000000
vn 0.999020 0.000000 0.044254
vn 0.999020 0.000000 0.044254
vn 1.000000 0.000000 0.000000
vn -0.999020 0.000000 0.044254
vn -0.999020 0.000000 0.044254
vn -1.000000 0.000000 0.000000
vn -1.000000 0.000000 0.000000
vn 0.811847 -0.000003 -0.583870
vn 0.999020 -0.000002 -0.044254
vn 0.999020 -0.000002 -0.044254
vn 0.811847 -0.000003 -0.583870
vn -0.999020 0.000000 -0.044254
vn -0.999020 0.000000 -0.044254
vn -0.811847 0.000000 -0.583870
vn -0.811847 0.000000 -0.583870
vn 0.000000 0.000000 -1.000000
vn -0.043728 0.000000 -0.999043
vn -0.043728 0.000000 -0.999043
vn 0.000000 0.000000 -1.000000
vn 0.736132 0.000000 -0.676839
vn 0.044431 0.000000 -0.999013
vn 0.044431 0.000000 -0.999013
vn 0.736131 0.000000 -0.676839
vn -0.043728 0.000000 0.999044
vn -0.043728 0.000000 0.999044
vn -0.000000 0.000000 1.000000
vn -0.000000 0.000000 1.000000
vn 0.044431 0.000000 0.999013
vn 0.044431 0.000000 0.999013
vn 0.736129 0.000000 0.676841
vn 0.736129 0.000000 0.676841
vn -1.000000 0.000000 0.000000
vn -1.000000 0.000000 0.000000
vn -1.000000 0.000000 0.000000
vn -1.000000 0.000000 0.000000
vn 0.000000 1.000000 0.000000
vn 0.000000 1.000000 0.000000
vn 0.811849 0.000000 0.583867
vn 0.811849 0.000000 0.583867
vn 0.000000 1.000000 -0.000000
vn 0.000000 1.000000 -0.000000
vn -0.811849 0.000000 0.583867
vn -0.811849 0.000000 0.583867
vn 0.000000 1.000000 -0.000000
vn 0.000000 1.000000 0.000000
vn 1.000000 0.000000 0.000000
vn 1.000000 0.000000 0.000000
vn 1.000000 0.000000 0.000000
vn 1.000000 0.000000 0.000000
vn -1.000000 0.000000 0.000000
vn -1.000000 0.000000 0.000000
vn -1.000000 0.000000 0.000000
vn -1.000000 0.000000 0.000000
vn 0.000000 1.000000 0.000000
vn 0.000000 1.000000 0.000000
vn 1.000000 -0.000002 -0.000000
vn 1.000000 -0.000002 -0.000000
vn 0.000000 1.000000 0.000000
vn 0.000000 1.000000 0.000000
vn -1.000000 0.000000 0.000000
vn -1.000000 0.000000 0.000000
vn 0.000000 1.000000 0.000000
vn 0.000000 1.000000 0.000000
vn 1.000000 0.000000 0.000000
vn 1.000000 0.000000 0.000000
vn 1.000000 0.000000 0.000000
vn 1.000000 0.000000 0.000000
vn 0.000000 0.000000 -1.000000
vn 0.000000 0.000000 -1.000000
vn 0.000000 0.000000 -1.000000
vn 0.000000 0.000000 -1.000000
vn 0.000000 1.000000 0.000000
vn 0.000000 1.000000 0.000000
vn 0.000000 1.000000 0.000000
vn 0.000000 0.000000 1.000000
vn 0.000000 0.000000 1.000000
vn -0.000000 1.000000 -0.000000
vn -0.000000 1.000000 -0.000000
vn 0.000000 1.000000 -0.000000
vn 0.000000 1.000000 -0.000000
vn -0.000000 0.000000 -1.000000
vn -0.000000 0.000000 -1.000000
vn 0.000000 1.000000 0.000000
vn 0.000000 1.000000 0.000000
vn 0.000000 1.000000 0.000000
vn 0.000000 0.000000 1.000000
vn 0.000000 0.000000 1.000000
vn 0.000000 0.000000 1.000000
vn 0.000000 0.000000 1.000000
vn 0.000000 0.000000 -1.000000
vn 0.000000 0.000000 -1.000000
vn 0.000000 1.000000 0.000000
vn 0.000000 1.000000 -0.000000
vn 0.000000 1.000000 -0.000000
vn -0.672529 0.000000 0.740071
vn -0.672528 0.000000 0.740071
vn -0.672530 0.000000 -0.740070
vn -0.672530 0.000000 -0.740070
vn 0.000000 1.000000 0.000000
vn 0.000000 1.000000 0.000000
vn 0.000000 1.000000 0.000000
vn 0.000000 0.000000 1.000000
vn 0.000000 0.000000 1.000000
vn 0.000000 1.000000 -0.000000
vn 0.000000 1.000000 -0.000000
vn 0.000000 1.000000 -0.000000
vn 0.000000 1.000000 0.000000
vn 0.000000 1.000000 0.000000
vn 0.000000 1.000000 0.000000
s 1
g CrossRoad
usemtl initialShadingGroup
f 98/193/1 99/194/2 2/2/3 4/4/4
s 2
f 96/191/5 97/192/6 72/154/7 6/6/8
s 3
f 72/155/9 73/157/10 8/7/11 6/8/12
s 4
f 7/9/13 66/144/14 67/146/15 5/10/16
s 5
f 90/181/17 91/182/18 62/138/19 14/15/20
s 6
f 89/180/21 90/181/22 14/15/23 16/17/24
s 7
f 62/139/25 63/141/26 16/19/27 14/20/28
s 8
f 15/21/29 56/128/30 57/130/31 13/22/32
s 9
f 93/186/33 94/187/34 18/28/35 10/24/36
s 10
f 18/28/37 94/187/38 95/188/39 8/25/40
s 11
f 2/29/41 99/195/42 100/196/43 20/32/44
s 12
f 65/143/45 66/145/46 7/34/47 21/35/48
s 13
f 8/37/49 73/156/50 74/158/51 22/40/52
s 14
f 88/178/53 89/179/54 16/42/55 24/43/56
s 15
f 55/127/57 56/129/58 15/46/59 23/47/60
s 16
f 16/49/61 63/140/62 64/142/63 24/52/64
s off
f 17/53/65 9/54/66 25/55/67 27/56/68
f 10/57/69 18/58/70 28/59/71 26/60/72
f 7/61/73 17/62/74 27/63/75 21/64/76
f 18/65/77 8/66/78 22/67/79 28/68/80
s 14
f 44/88/81 45/89/82 30/70/83 29/69/84
s 11
f 32/74/85 31/73/86 53/99/87 54/100/88
s 14
f 29/69/84 30/70/83 34/76/89 33/75/90
s 19
f 101/197/91 102/198/92 60/135/93 34/108/94
s 9
f 38/81/95 37/80/96 103/200/97 104/201/98
s 10
f 39/82/99 38/81/100 104/201/101 105/202/102
s 20
f 105/203/103 106/204/104 70/152/105 39/110/106
s 11
f 43/87/107 42/86/108 31/73/86 32/74/85
s 14
f 75/159/109 76/160/110 45/89/82 44/88/81
s 21
f 76/161/111 77/162/112 46/91/113 45/90/114
s 22
f 77/162/115 78/163/116 58/132/117 46/91/118
s 9
f 80/167/119 81/168/120 49/94/121 48/93/122
s 10
f 50/95/123 49/94/124 81/168/125 82/169/126
s 24
f 83/172/127 84/173/128 68/149/129 51/96/130
s 25
f 85/174/131 86/175/132 53/98/133 52/97/134
s 11
f 54/100/88 53/99/87 86/176/135 87/177/136
s 26
f 46/91/137 58/132/138 59/133/139 45/101/140
s 27
f 60/134/141 61/137/142 35/72/143 34/106/144
s 28
f 51/71/145 68/148/146 69/151/147 50/103/148
s 29
f 70/152/149 71/153/150 40/83/151 39/110/152
s 30
f 8/111/153 95/189/154 96/190/155 6/114/156
s 31
f 50/115/157 82/170/158 83/171/159 51/118/160
s 32
f 92/184/161 93/185/162 10/120/163 12/121/164
s 33
f 79/165/165 80/166/166 48/124/167 47/125/168
s 15
f 9/45/169 56/129/58 55/127/57 25/48/170
s 8
f 57/130/31 56/128/30 9/11/171 11/14/172
s 22
f 78/163/116 79/164/173 47/92/174 58/132/117
s 26
f 59/133/139 58/132/138 47/92/175 48/102/176
s 19
f 102/198/92 103/199/177 37/107/178 60/135/93
s 27
f 36/97/179 61/137/142 60/134/141 37/105/180
s 5
f 62/138/19 91/182/18 92/183/181 12/13/182
s 7
f 10/12/183 63/141/26 62/139/25 12/13/184
s 16
f 64/142/63 63/140/62 10/50/185 26/51/186
s 12
f 1/33/187 66/145/46 65/143/45 19/36/188
s 4
f 67/146/15 66/144/14 1/1/189 3/3/190
s 24
f 84/173/128 85/174/191 52/97/192 68/149/129
s 28
f 69/151/147 68/148/146 52/79/193 53/107/194
s 20
f 106/204/104 107/205/195 42/109/196 70/152/105
s 29
f 41/84/197 71/153/150 70/152/149 42/109/198
s 2
f 72/154/7 97/192/6 98/193/199 4/4/200
s 3
f 2/2/201 73/157/10 72/155/9 4/4/202
s 13
f 74/158/51 73/156/50 2/38/203 20/39/204
s 14
f 15/41/205 76/160/110 75/159/109 23/44/206
s 21
f 13/16/207 77/162/112 76/161/111 15/18/208
s 22
f 57/131/209 78/163/116 77/162/115 13/16/210
f 11/14/211 79/164/173 78/163/116 57/131/209
s 33
f 9/123/212 80/166/166 79/165/165 11/126/213
s 9
f 9/23/214 17/27/215 81/168/120 80/167/119
s 10
f 82/169/126 81/168/125 17/27/216 7/26/217
s 31
f 83/171/159 82/170/158 7/116/218 5/117/219
s 24
f 67/147/220 84/173/128 83/172/127 5/5/221
f 3/3/222 85/174/191 84/173/128 67/147/220
s 25
f 1/1/223 86/175/132 85/174/131 3/3/224
s 11
f 87/177/136 86/176/135 1/30/225 19/31/226
s 14
f 33/75/90 34/76/89 89/179/54 88/178/53
s 6
f 34/77/227 35/78/228 90/181/22 89/180/21
s 5
f 35/78/229 61/136/230 91/182/18 90/181/17
f 92/183/181 91/182/18 61/136/230 36/79/231
s 32
f 37/119/232 93/185/162 92/184/161 36/122/233
s 9
f 37/80/96 38/81/95 94/187/34 93/186/33
s 10
f 95/188/39 94/187/38 38/81/100 39/82/99
s 30
f 96/190/155 95/189/154 39/112/234 40/113/235
s 2
f 40/83/236 71/153/237 97/192/6 96/191/5
f 98/193/199 97/192/6 71/153/237 41/84/238
s 1
f 41/84/239 42/85/240 99/194/2 98/193/1
s 11
f 100/196/43 99/195/42 42/86/108 43/87/107
s 19
f 59/133/241 102/198/92 101/197/91 45/101/242
f 48/102/243 103/199/177 102/198/92 59/133/241
s 9
f 104/201/98 103/200/97 48/93/122 49/94/121
s 10
f 105/202/102 104/201/101 49/94/124 50/95/123
s 20
f 69/150/244 106/204/104 105/203/103 50/104/245
f 53/105/246 107/205/195 106/204/104 69/150/244
