# This file uses centimeters as units for non-parametric coordinates.

mtllib LongBend.mtl
g default
v -498.885803 -3.298163 35.814911
v 386.528992 -3.298163 368.152008
v -498.885803 -0.866718 35.814911
v 386.528992 -0.866718 368.152008
v -498.885803 -0.866718 1.299789
v 406.177429 -0.866718 339.775330
v -498.885803 -3.298157 1.299789
v 406.177429 -3.298157 339.775330
v -498.885803 -3.298163 -126.113449
v 478.710022 -3.298163 235.022385
v -498.885803 -0.866718 -126.113449
v 478.710022 -0.866718 235.022385
v -498.885803 -0.866718 -160.628555
v 498.358459 -0.866718 206.645737
v -498.885803 -3.298163 -160.628555
v 498.358459 -3.298163 206.645737
v -498.885803 -3.298162 -62.406830
v 442.443726 -3.298162 287.398865
v -498.885803 -35.657730 35.814911
v 386.528992 -35.657730 368.152008
v -498.885803 -35.657730 1.299789
v 406.177429 -35.657730 339.775330
v -498.885803 -35.657730 -160.628555
v 498.358459 -35.657730 206.645737
v -498.885803 -35.657730 -126.113449
v 478.710022 -35.657730 235.022385
v -498.885803 -35.657730 -62.406830
v 442.443726 -35.657730 287.398865
v 3.667610 -35.657730 -86.453140
v 3.667610 -3.298163 -86.453140
v 3.667610 -0.866718 -86.453140
v -7.538057 -0.866718 -53.807724
v -7.538057 -3.298163 -53.807724
v -28.221048 -3.298162 6.447968
v -48.904034 -3.298159 66.703659
v -48.904034 -0.866718 66.703659
v -60.109711 -0.866718 99.349091
v -60.109711 -3.298163 99.349091
v -60.109711 -35.657730 99.349091
v -263.553436 -35.657730 -144.705002
v -263.553436 -3.298163 -144.705002
v -263.553436 -0.866718 -144.705002
v -263.553436 -0.866718 -110.189896
v -263.553436 -3.298163 -110.189896
v -263.553436 -3.298162 -46.483276
v -263.553436 -3.298159 17.223343
v -263.553436 -0.866718 17.223343
v -263.553436 -0.866718 51.738464
v -263.553436 -3.298163 51.738464
v -263.553436 -35.657730 51.738464
v 252.974457 -35.657730 39.375275
v 252.974457 -3.298163 39.375275
v 252.974457 -0.866718 39.375275
v 236.858124 -0.866718 69.896759
v 236.858124 -3.298163 69.896759
v 207.111328 -3.298162 126.231934
v 177.364548 -3.298159 182.567123
v 177.364548 -0.866718 182.567123
v 161.248230 -0.866718 213.088608
v 161.248230 -3.298163 213.088608
v 161.248230 -35.657730 213.088608
v 117.329987 -35.657730 -35.607376
v 117.329987 -3.298163 -35.607376
v 117.329987 -0.866718 -35.607376
v 107.531250 -0.866718 -2.512375
v 107.531250 -3.298163 -2.512375
v 89.445145 -3.298162 58.573013
v 71.359039 -3.298159 119.658401
v 71.359039 -0.866718 119.658401
v 61.560307 -0.866718 152.753418
v 61.560307 -3.298163 152.753418
v 61.560307 -35.657730 152.753418
v -136.271576 -35.657730 -126.204987
v -136.271576 -3.298163 -126.204987
v -136.271576 -0.866718 -126.204987
v -139.650513 -0.866718 -91.855667
v -139.650513 -3.298163 -91.855667
v -145.887238 -3.298162 -28.455063
v -152.123962 -3.298159 34.945541
v -152.123962 -0.866718 34.945541
v -155.502914 -0.866718 69.294861
v -155.502914 -3.298163 69.294861
v -155.502914 -35.657730 69.294861
vt 0.375000 0.000000
vt 0.625000 0.000000
vt 0.375000 0.250000
vt 0.625000 0.250000
vt 0.375000 0.500000
vt 0.625000 0.500000
vt 0.375000 0.481027
vt 0.625000 0.481027
vt 0.875000 0.209612
vt 0.875000 0.250000
vt 0.125000 0.209612
vt 0.125000 0.250000
vt 0.375000 0.000000
vt 0.625000 0.000000
vt 0.625000 0.250000
vt 0.375000 0.250000
vt 0.625000 0.500000
vt 0.375000 0.500000
vt 0.625000 0.750000
vt 0.375000 0.750000
vt 0.875000 0.000000
vt 0.875000 0.250000
vt 0.125000 0.000000
vt 0.125000 0.250000
vt 0.000000 0.000000
vt 1.000000 0.000000
vt 1.000000 1.602028
vt 0.000000 1.602028
vt 0.000000 0.811669
vt 1.000000 0.811669
vt 0.000000 0.000000
vt 1.000000 0.000000
vt 1.000000 1.000000
vt 0.000000 1.000000
vt 0.000000 0.000000
vt 1.000000 -0.050551
vt 1.000000 1.000000
vt 0.000000 1.000000
vt 0.000000 -0.050551
vt 1.000000 0.000000
vt 1.000000 1.000000
vt 0.000000 1.000000
vt 0.000000 0.000000
vt 1.000000 0.000000
vt 1.000000 1.000000
vt 0.000000 1.000000
vt 0.000000 0.000000
vt 1.000000 0.000000
vt 1.000000 1.000000
vt 0.000000 1.000000
vt 0.000000 0.000000
vt 1.000000 0.000000
vt 1.000000 1.000000
vt 0.000000 1.000000
vt 0.000000 0.000000
vt 1.000000 0.000000
vt 1.000000 1.000000
vt 0.000000 1.000000
vt 0.000000 0.000000
vt 1.000000 0.000000
vt 1.000000 1.000000
vt 0.000000 1.000000
vt 0.000000 -0.806266
vt 1.000000 0.000000
vt 1.000000 1.000000
vt 0.000000 -0.000000
vt 0.000000 0.000000
vt 1.000000 -0.806266
vt 1.000000 -0.000000
vt 0.000000 1.000000
vt 0.500000 1.000000
vt 0.500000 0.000000
vt 0.500000 0.750000
vt 0.500000 0.500000
vt 0.500000 0.250000
vt 0.500000 0.000000
vt 0.500000 0.000000
vt 0.500000 0.811669
vt 0.500000 1.602028
vt 0.500000 0.481027
vt 0.500000 0.500000
vt 0.500000 0.250000
vt 0.500000 0.000000
vt 0.500000 0.000000
vt 0.500000 1.000000
vt 0.250000 1.000000
vt 0.250000 0.000000
vt 0.437500 0.750000
vt 0.437500 0.500000
vt 0.437500 0.250000
vt 0.437500 0.000000
vt 0.250000 0.000000
vt 0.250000 0.811669
vt 0.250000 1.602028
vt 0.437500 0.481027
vt 0.437500 0.500000
vt 0.437500 0.250000
vt 0.437500 0.000000
vt 0.750000 0.000000
vt 0.750000 1.000000
vt 0.750000 1.000000
vt 0.750000 0.000000
vt 0.562500 0.750000
vt 0.562500 0.500000
vt 0.562500 0.250000
vt 0.562500 0.000000
vt 0.750000 0.000000
vt 0.750000 0.811669
vt 0.750000 1.602028
vt 0.562500 0.481027
vt 0.562500 0.500000
vt 0.562500 0.250000
vt 0.562500 0.000000
vt 0.250000 0.000000
vt 0.250000 1.000000
vt 0.625000 1.000000
vt 0.625000 0.000000
vt 0.531250 0.750000
vt 0.531250 0.500000
vt 0.531250 0.250000
vt 0.531250 0.000000
vt 0.625000 0.000000
vt 0.625000 0.811669
vt 0.625000 1.602028
vt 0.531250 0.481027
vt 0.531250 0.500000
vt 0.531250 0.250000
vt 0.531250 0.000000
vt 0.375000 0.000000
vt 0.375000 1.000000
vt 0.375000 1.000000
vt 0.375000 0.000000
vt 0.468750 0.750000
vt 0.468750 0.500000
vt 0.468750 0.250000
vt 0.468750 0.000000
vt 0.375000 0.000000
vt 0.375000 0.811669
vt 0.375000 1.602028
vt 0.468750 0.481027
vt 0.468750 0.500000
vt 0.468750 0.250000
vt 0.468750 0.000000
vt 0.625000 0.000000
vt 0.625000 1.000000
vn -0.552484 0.000000 0.833524
vn -0.552484 0.000000 0.833524
vn -0.566983 0.000000 0.823730
vn -0.566983 0.000000 0.823730
vn 0.000000 1.000000 0.000000
vn 0.000000 1.000000 0.000000
vn 0.000000 1.000000 0.000000
vn 0.000000 1.000000 0.000000
vn 0.549341 0.000000 -0.835599
vn 0.549341 0.000000 -0.835599
vn 0.566283 0.000000 -0.824211
vn 0.566283 0.000000 -0.824211
vn 0.822151 0.000000 0.569269
vn 0.822151 0.000000 0.569269
vn 0.822151 0.000000 0.569269
vn 0.822151 0.000000 0.569269
vn -1.000000 0.000000 0.000000
vn -1.000000 0.000000 0.000000
vn -1.000000 0.000000 0.000000
vn -1.000000 0.000000 0.000000
vn -0.539022 0.000000 0.842292
vn -0.539022 0.000000 0.842292
vn -0.563865 0.000000 0.825867
vn -0.563865 0.000000 0.825867
vn 0.000000 1.000000 -0.000000
vn 0.000000 1.000000 -0.000000
vn 0.000000 1.000000 -0.000000
vn 0.000000 1.000000 -0.000000
vn 0.536529 0.000000 -0.843882
vn 0.536529 0.000000 -0.843882
vn 0.563252 0.000000 -0.826285
vn 0.563252 0.000000 -0.826285
vn 0.822151 0.000000 0.569270
vn 0.822151 0.000000 0.569270
vn 0.822151 0.000000 0.569270
vn 0.822151 0.000000 0.569270
vn -1.000000 0.000000 0.000000
vn -1.000000 0.000000 0.000000
vn -1.000000 0.000000 0.000000
vn -1.000000 0.000000 0.000000
vn 0.000000 1.000000 -0.000000
vn 0.000000 1.000000 -0.000000
vn 0.000000 1.000000 -0.000000
vn 0.000000 1.000000 -0.000000
vn 0.000000 1.000000 -0.000000
vn 0.000000 1.000000 -0.000000
vn 0.000000 1.000000 -0.000000
vn 0.000000 1.000000 -0.000000
vn -0.566983 0.000000 0.823730
vn -0.552484 0.000000 0.833524
vn -0.552484 0.000000 0.833524
vn -0.566983 0.000000 0.823730
vn -1.000000 0.000000 0.000000
vn -1.000000 0.000000 0.000000
vn -1.000000 0.000000 0.000000
vn -1.000000 0.000000 0.000000
vn 0.822151 0.000000 0.569270
vn 0.822151 0.000000 0.569270
vn 0.822151 0.000000 0.569270
vn 0.822151 0.000000 0.569270
vn 0.536529 0.000000 -0.843882
vn 0.536529 0.000000 -0.843882
vn 0.563252 0.000000 -0.826285
vn 0.563252 0.000000 -0.826285
vn -1.000000 0.000000 0.000000
vn -1.000000 0.000000 0.000000
vn -1.000000 0.000000 0.000000
vn -1.000000 0.000000 0.000000
vn 0.822151 0.000000 0.569270
vn 0.822151 0.000000 0.569270
vn 0.822151 0.000000 0.569270
vn 0.822151 0.000000 0.569270
vn -1.000000 0.000000 0.000000
vn -1.000000 0.000000 0.000000
vn -1.000000 0.000000 0.000000
vn -1.000000 0.000000 0.000000
vn 0.822151 0.000000 0.569270
vn 0.822151 0.000000 0.569270
vn 0.822151 0.000000 0.569270
vn 0.822151 0.000000 0.569270
vn -1.000000 0.000000 0.000000
vn -1.000000 0.000000 0.000000
vn -1.000000 0.000000 0.000000
vn -1.000000 0.000000 0.000000
vn 0.822151 0.000000 0.569270
vn 0.822151 0.000000 0.569270
vn 0.822151 0.000000 0.569270
vn 0.822151 0.000000 0.569270
vn 0.212989 0.000000 -0.977055
vn 0.212989 0.000000 -0.977055
vn 0.336421 0.000000 -0.941712
vn 0.336421 0.000000 -0.941712
vn 0.212989 0.000000 -0.977055
vn 0.212989 0.000000 -0.977055
vn 0.336421 0.000000 -0.941712
vn 0.336421 0.000000 -0.941712
vn 0.000000 1.000000 0.000000
vn 0.000000 1.000000 0.000000
vn 0.000000 1.000000 -0.000000
vn 0.000000 1.000000 0.000000
vn -0.215076 0.000000 0.976597
vn -0.215076 0.000000 0.976597
vn -0.339925 0.000000 0.940453
vn -0.339925 0.000000 0.940453
vn 0.000000 1.000000 -0.000000
vn 0.000000 1.000000 -0.000000
vn 0.000000 1.000000 -0.000000
vn 0.000000 1.000000 -0.000000
vn 0.000000 1.000000 -0.000000
vn 0.000000 1.000000 -0.000000
vn 0.000000 1.000000 -0.000000
vn 0.000000 1.000000 -0.000000
vn 0.224626 0.000000 -0.974445
vn 0.224626 0.000000 -0.974445
vn 0.354447 0.000000 -0.935076
vn 0.354447 0.000000 -0.935076
vn 0.000000 1.000000 -0.000000
vn 0.000000 1.000000 -0.000000
vn 0.000000 1.000000 -0.000000
vn 0.000000 1.000000 -0.000000
vn -0.227867 0.000000 0.973692
vn -0.227867 0.000000 0.973692
vn -0.358877 0.000000 0.933385
vn -0.358877 0.000000 0.933385
vn -0.358877 0.000000 0.933385
vn -0.358877 0.000000 0.933385
vn -0.227867 0.000000 0.973692
vn -0.227867 0.000000 0.973692
vn 0.067510 0.000000 -0.997719
vn 0.094507 0.000000 -0.995524
vn 0.094507 0.000000 -0.995524
vn 0.067510 0.000000 -0.997719
vn 0.067510 0.000000 -0.997719
vn 0.094507 0.000000 -0.995524
vn 0.094507 0.000000 -0.995524
vn 0.067510 0.000000 -0.997719
vn 0.000000 1.000000 0.000000
vn 0.000000 1.000000 0.000000
vn 0.000000 1.000000 0.000000
vn 0.000000 1.000000 0.000000
vn -0.067510 0.000000 0.997719
vn -0.094932 0.000000 0.995484
vn -0.094932 0.000000 0.995484
vn -0.067510 0.000000 0.997719
vn 0.000000 1.000000 -0.000000
vn 0.000000 1.000000 -0.000000
vn 0.000000 1.000000 -0.000000
vn 0.000000 1.000000 -0.000000
vn 0.000000 1.000000 -0.000000
vn 0.000000 1.000000 -0.000000
vn 0.000000 1.000000 -0.000000
vn 0.000000 1.000000 -0.000000
vn 0.067510 0.000000 -0.997719
vn 0.096575 0.000000 -0.995326
vn 0.096575 0.000000 -0.995326
vn 0.067510 0.000000 -0.997719
vn 0.000000 1.000000 0.000000
vn 0.000000 1.000000 -0.000000
vn 0.000000 1.000000 -0.000000
vn 0.000000 1.000000 0.000000
vn -0.067510 0.000000 0.997719
vn -0.097040 0.000000 0.995281
vn -0.097040 0.000000 0.995281
vn -0.067510 0.000000 0.997719
vn -0.097040 0.000000 0.995280
vn -0.097040 0.000000 0.995280
vn -0.067510 0.000000 0.997719
vn -0.067510 0.000000 0.997719
vn 0.450576 0.000000 -0.892738
vn 0.450576 0.000000 -0.892738
vn 0.450576 0.000000 -0.892738
vn 0.450576 0.000000 -0.892738
vn 0.000000 1.000000 -0.000000
vn 0.000000 1.000000 -0.000000
vn -0.451608 0.000000 0.892217
vn -0.451608 0.000000 0.892217
vn 0.000000 1.000000 -0.000000
vn 0.000000 1.000000 -0.000000
vn 0.000000 1.000000 -0.000000
vn 0.000000 1.000000 -0.000000
vn 0.455782 0.000000 -0.890092
vn 0.455782 0.000000 -0.890092
vn 0.000000 1.000000 -0.000000
vn 0.000000 1.000000 -0.000000
vn -0.457025 0.000000 0.889454
vn -0.457025 0.000000 0.889454
vn -0.457025 0.000000 0.889454
vn -0.457025 0.000000 0.889454
s 1
g LongBend
usemtl initialShadingGroup
f 59/112/1 60/113/2 2/2/3 4/4/4
s 2
f 58/111/5 59/112/6 4/4/7 6/6/8
s 3
f 57/110/9 58/111/10 6/6/11 8/8/12
s off
f 2/2/13 8/9/14 6/10/15 4/4/16
f 7/11/17 1/1/18 3/3/19 5/12/20
s 4
f 54/105/21 55/106/22 10/14/23 12/15/24
s 5
f 53/104/25 54/105/26 12/15/27 14/17/28
s 6
f 52/103/29 53/104/30 14/17/31 16/19/32
s off
f 10/14/33 16/21/34 14/22/35 12/15/36
f 15/23/37 9/13/38 11/16/39 13/24/40
s 7
f 55/107/41 56/108/42 18/30/43 10/26/44
s 8
f 18/30/45 56/108/46 57/109/47 8/27/48
s 9
f 2/31/49 60/114/50 61/115/51 20/34/52
s off
f 1/35/53 7/36/54 21/37/55 19/38/56
f 8/39/57 2/40/58 20/41/59 22/42/60
s 10
f 51/101/61 52/102/62 16/44/63 24/45/64
s off
f 9/47/65 15/48/66 23/49/67 25/50/68
f 16/51/69 10/52/70 26/53/71 24/54/72
f 17/55/73 9/56/74 25/57/75 27/58/76
f 10/59/77 18/60/78 28/61/79 26/62/80
f 7/63/81 17/64/82 27/65/83 21/66/84
f 18/67/85 8/68/86 22/69/87 28/70/88
s 10
f 73/131/89 74/132/90 30/72/91 29/71/92
s 6
f 74/133/93 75/134/94 31/74/95 30/73/96
s 5
f 75/134/97 76/135/98 32/75/99 31/74/100
s 4
f 76/135/101 77/136/102 33/76/103 32/75/104
s 7
f 77/137/105 78/138/106 34/78/107 33/77/108
s 8
f 35/79/109 34/78/110 78/138/111 79/139/112
s 3
f 79/140/113 80/141/114 36/81/115 35/80/116
s 2
f 80/141/117 81/142/118 37/82/119 36/81/120
s 1
f 81/142/121 82/143/122 38/83/123 37/82/124
s 9
f 39/85/125 38/84/126 82/144/127 83/145/128
s 10
f 15/43/129 41/87/130 40/86/131 23/46/132
s 6
f 13/18/133 42/89/134 41/88/135 15/20/136
s 5
f 11/16/137 43/90/138 42/89/139 13/18/140
s 4
f 9/13/141 44/91/142 43/90/143 11/16/144
s 7
f 9/25/145 17/29/146 45/93/147 44/92/148
s 8
f 46/94/149 45/93/150 17/29/151 7/28/152
s 3
f 5/5/153 47/96/154 46/95/155 7/7/156
s 2
f 3/3/157 48/97/158 47/96/159 5/5/160
s 1
f 1/1/161 49/98/162 48/97/163 3/3/164
s 9
f 50/100/165 49/99/166 1/32/167 19/33/168
s 10
f 62/116/169 63/117/170 52/102/62 51/101/61
s 6
f 63/118/171 64/119/172 53/104/30 52/103/29
s 5
f 64/119/173 65/120/174 54/105/26 53/104/25
s 4
f 65/120/175 66/121/176 55/106/22 54/105/21
s 7
f 66/122/177 67/123/178 56/108/42 55/107/41
s 8
f 57/109/47 56/108/46 67/123/179 68/124/180
s 3
f 68/125/181 69/126/182 58/111/10 57/110/9
s 2
f 69/126/183 70/127/184 59/112/6 58/111/5
s 1
f 70/127/185 71/128/186 60/113/2 59/112/1
s 9
f 61/115/51 60/114/50 71/129/187 72/130/188
s 10
f 29/71/92 30/72/91 63/117/170 62/116/169
s 6
f 30/73/96 31/74/95 64/119/172 63/118/171
s 5
f 31/74/100 32/75/99 65/120/174 64/119/173
s 4
f 32/75/104 33/76/103 66/121/176 65/120/175
s 7
f 33/77/108 34/78/107 67/123/178 66/122/177
s 8
f 68/124/180 67/123/179 34/78/110 35/79/109
s 3
f 35/80/116 36/81/115 69/126/182 68/125/181
s 2
f 36/81/120 37/82/119 70/127/184 69/126/183
s 1
f 37/82/124 38/83/123 71/128/186 70/127/185
s 9
f 72/130/188 71/129/187 38/84/126 39/85/125
s 10
f 40/86/131 41/87/130 74/132/90 73/131/89
s 6
f 41/88/135 42/89/134 75/134/94 74/133/93
s 5
f 42/89/139 43/90/138 76/135/98 75/134/97
s 4
f 43/90/143 44/91/142 77/136/102 76/135/101
s 7
f 44/92/148 45/93/147 78/138/106 77/137/105
s 8
f 79/139/112 78/138/111 45/93/150 46/94/149
s 3
f 46/95/155 47/96/154 80/141/114 79/140/113
s 2
f 47/96/159 48/97/158 81/142/118 80/141/117
s 1
f 48/97/163 49/98/162 82/143/122 81/142/121
s 9
f 83/145/128 82/144/127 49/99/166 50/100/165
