# This file uses centimeters as units for non-parametric coordinates.

mtllib SmallHill.mtl
g default
v 115.577774 -3.298163 -100.228607
v -115.577774 28.863741 -100.228607
v 115.577774 -0.866718 -100.228607
v -115.577774 31.295187 -100.228607
v 115.577774 -0.866718 -65.713486
v -115.577774 31.295187 -65.713486
v 115.577774 -3.298157 -65.713486
v -115.577774 28.863745 -65.713486
v 115.577774 -3.298163 61.699753
v -115.577774 28.863741 61.699753
v 115.577774 -0.866718 61.699753
v -115.577774 31.295187 61.699753
v 115.577774 -0.866718 96.214859
v -115.577774 31.295187 96.214859
v 115.577774 -3.298163 96.214859
v -115.577774 28.863741 96.214859
v 115.577774 -3.298162 -2.006866
v -115.577774 28.863743 -2.006866
v 115.577774 -35.657730 -100.228607
v -115.577774 -3.495827 -100.228607
v 115.577774 -35.657730 -65.713486
v -115.577774 -3.495827 -65.713486
v 115.577774 -35.657730 96.214859
v -115.577774 -3.495827 96.214859
v 115.577774 -35.657730 61.699753
v -115.577774 -3.495827 61.699753
v 115.577774 -35.657730 -2.006866
v -115.577774 -3.495827 -2.006866
v -38.534317 -5.044523 96.214859
v -38.534317 27.315044 96.214859
v -38.534317 29.746490 96.214859
v -38.534317 29.746490 61.699753
v -38.534317 27.315044 61.699753
v -38.534317 27.315046 -2.006866
v -38.534317 27.315048 -65.713486
v -38.534317 29.746490 -65.713486
v -38.534317 29.746490 -100.228607
v -38.534317 27.315044 -100.228607
v -38.534317 -5.044523 -100.228607
v -7.690166 -9.243818 96.214859
v -7.690166 23.115749 96.214859
v -7.690166 25.547195 96.214859
v -7.690166 25.547195 61.699753
v -7.690166 23.115749 61.699753
v -7.690166 23.115751 -2.006866
v -7.690166 23.115753 -65.713486
v -7.690166 25.547195 -65.713486
v -7.690166 25.547195 -100.228607
v -7.690166 23.115749 -100.228607
v -7.690166 -9.243818 -100.228607
v 24.295273 -13.559128 96.214859
v 24.295273 18.800440 96.214859
v 24.295273 21.231886 96.214859
v 24.295273 21.231886 61.699753
v 24.295273 18.800440 61.699753
v 24.295273 18.800442 -2.006866
v 24.295273 18.800444 -65.713486
v 24.295273 21.231886 -65.713486
v 24.295273 21.231886 -100.228607
v 24.295273 18.800440 -100.228607
v 24.295273 -13.559128 -100.228607
vt 0.375000 0.000000
vt 0.625000 0.000000
vt 0.375000 0.250000
vt 0.625000 0.250000
vt 0.375000 0.500000
vt 0.625000 0.500000
vt 0.375000 0.481027
vt 0.625000 0.481027
vt 0.875000 0.209612
vt 0.875000 0.250000
vt 0.125000 0.209612
vt 0.125000 0.250000
vt 0.375000 0.000000
vt 0.625000 0.000000
vt 0.625000 0.250000
vt 0.375000 0.250000
vt 0.625000 0.500000
vt 0.375000 0.500000
vt 0.625000 0.750000
vt 0.375000 0.750000
vt 0.875000 0.000000
vt 0.875000 0.250000
vt 0.125000 0.000000
vt 0.125000 0.250000
vt 0.000000 0.000000
vt 1.000000 0.000000
vt 1.000000 1.602028
vt 0.000000 1.602028
vt 0.000000 0.811669
vt 1.000000 0.811669
vt 0.000000 0.000000
vt 1.000000 0.000000
vt 1.000000 1.000000
vt 0.000000 1.000000
vt 0.000000 0.000000
vt 1.000000 -0.050551
vt 1.000000 1.000000
vt 0.000000 1.000000
vt 0.000000 -0.050551
vt 1.000000 0.000000
vt 1.000000 1.000000
vt 0.000000 1.000000
vt 0.000000 0.000000
vt 1.000000 0.000000
vt 1.000000 1.000000
vt 0.000000 1.000000
vt 0.000000 0.000000
vt 1.000000 0.000000
vt 1.000000 1.000000
vt 0.000000 1.000000
vt 0.000000 0.000000
vt 1.000000 0.000000
vt 1.000000 1.000000
vt 0.000000 1.000000
vt 0.000000 0.000000
vt 1.000000 0.000000
vt 1.000000 1.000000
vt 0.000000 1.000000
vt 0.000000 0.000000
vt 1.000000 0.000000
vt 1.000000 1.000000
vt 0.000000 1.000000
vt 0.000000 -0.806266
vt 1.000000 0.000000
vt 1.000000 1.000000
vt 0.000000 -0.000000
vt 0.000000 0.000000
vt 1.000000 -0.806266
vt 1.000000 -0.000000
vt 0.000000 1.000000
vt 0.666703 1.000000
vt 0.666703 0.000000
vt 0.541676 0.750000
vt 0.541676 0.500000
vt 0.541676 0.250000
vt 0.541676 0.000000
vt 0.666703 0.000000
vt 0.666703 0.811669
vt 0.666703 1.602028
vt 0.541676 0.481027
vt 0.541676 0.500000
vt 0.541676 0.250000
vt 0.541676 0.000000
vt 0.333297 0.000000
vt 0.333297 1.000000
vt 0.533268 1.000000
vt 0.533268 0.000000
vt 0.508317 0.750000
vt 0.508317 0.500000
vt 0.508317 0.250000
vt 0.508317 0.000000
vt 0.533268 0.000000
vt 0.533268 0.811669
vt 0.533268 1.602028
vt 0.508317 0.481027
vt 0.508317 0.500000
vt 0.508317 0.250000
vt 0.508317 0.000000
vt 0.466732 0.000000
vt 0.466732 1.000000
vt 0.394896 1.000000
vt 0.394896 0.000000
vt 0.473724 0.750000
vt 0.473724 0.500000
vt 0.473724 0.250000
vt 0.473724 0.000000
vt 0.394896 0.000000
vt 0.394896 0.811669
vt 0.394897 1.602028
vt 0.473724 0.481027
vt 0.473724 0.500000
vt 0.473724 0.250000
vt 0.473724 0.000000
vt 0.605104 0.000000
vt 0.605104 1.000000
vn 0.000000 0.000000 -1.000000
vn 0.000000 0.000000 -1.000000
vn 0.000000 0.000000 -1.000000
vn 0.000000 0.000000 -1.000000
vn 0.053202 0.998584 0.000000
vn 0.053202 0.998584 0.000000
vn 0.020098 0.999798 0.000000
vn 0.020098 0.999798 0.000000
vn 0.000000 0.000000 1.000000
vn 0.000000 0.000000 1.000000
vn 0.000000 0.000000 1.000000
vn 0.000000 0.000000 1.000000
vn -1.000000 0.000000 0.000000
vn -1.000000 0.000000 0.000000
vn -1.000000 0.000000 0.000000
vn -1.000000 0.000000 0.000000
vn 1.000000 0.000000 0.000000
vn 1.000000 0.000000 0.000000
vn 1.000000 0.000000 0.000000
vn 1.000000 0.000000 0.000000
vn 0.000000 0.000000 -1.000000
vn 0.000000 0.000000 -1.000000
vn 0.000000 0.000000 -1.000000
vn 0.000000 0.000000 -1.000000
vn 0.053202 0.998584 0.000000
vn 0.053202 0.998584 0.000000
vn 0.020098 0.999798 0.000000
vn 0.020098 0.999798 0.000000
vn -0.000000 0.000000 1.000000
vn -0.000000 0.000000 1.000000
vn 0.000000 0.000000 1.000000
vn 0.000000 0.000000 1.000000
vn -1.000000 0.000000 0.000000
vn -1.000000 0.000000 0.000000
vn -1.000000 0.000000 0.000000
vn -1.000000 0.000000 0.000000
vn 1.000000 0.000000 0.000000
vn 1.000000 0.000000 0.000000
vn 1.000000 0.000000 0.000000
vn 1.000000 0.000000 0.000000
vn 0.053202 0.998584 0.000000
vn 0.053202 0.998584 0.000000
vn 0.020098 0.999798 0.000000
vn 0.020098 0.999798 0.000000
vn 0.020098 0.999798 0.000000
vn 0.053202 0.998584 0.000000
vn 0.053202 0.998584 0.000000
vn 0.020098 0.999798 0.000000
vn 0.000000 0.000000 -1.000000
vn 0.000000 0.000000 -1.000000
vn 0.000000 0.000000 -1.000000
vn 0.000000 0.000000 -1.000000
vn 1.000000 0.000000 0.000000
vn 1.000000 0.000000 0.000000
vn 1.000000 0.000000 0.000000
vn 1.000000 0.000000 0.000000
vn -1.000000 0.000000 0.000000
vn -1.000000 0.000000 0.000000
vn -1.000000 0.000000 0.000000
vn -1.000000 0.000000 0.000000
vn -0.000000 0.000000 1.000000
vn -0.000000 0.000000 1.000000
vn 0.000000 0.000000 1.000000
vn 0.000000 0.000000 1.000000
vn 1.000000 0.000000 0.000000
vn 1.000000 0.000000 0.000000
vn 1.000000 0.000000 0.000000
vn 1.000000 0.000000 0.000000
vn -1.000000 0.000000 0.000000
vn -1.000000 0.000000 0.000000
vn -1.000000 0.000000 0.000000
vn -1.000000 0.000000 0.000000
vn 1.000000 0.000000 0.000000
vn 1.000000 0.000000 0.000000
vn 1.000000 0.000000 0.000000
vn 1.000000 0.000000 0.000000
vn -1.000000 0.000000 0.000000
vn -1.000000 0.000000 0.000000
vn -1.000000 0.000000 0.000000
vn -1.000000 0.000000 0.000000
vn 1.000000 0.000000 0.000000
vn 1.000000 0.000000 0.000000
vn 1.000000 0.000000 0.000000
vn 1.000000 0.000000 0.000000
vn -1.000000 0.000000 0.000000
vn -1.000000 0.000000 0.000000
vn -1.000000 0.000000 0.000000
vn -1.000000 0.000000 0.000000
vn -0.000000 0.000000 1.000000
vn -0.000000 0.000000 1.000000
vn -0.000000 0.000000 1.000000
vn -0.000000 0.000000 1.000000
vn 0.134291 0.990942 0.000000
vn 0.134291 0.990942 0.000000
vn 0.000000 0.000000 -1.000000
vn 0.000000 0.000000 -1.000000
vn 0.134291 0.990942 0.000000
vn 0.134291 0.990942 0.000000
vn 0.134291 0.990942 0.000000
vn 0.134291 0.990942 0.000000
vn 0.000000 0.000000 1.000000
vn 0.000000 0.000000 1.000000
vn 0.134291 0.990942 0.000000
vn 0.134291 0.990942 0.000000
vn 0.000000 0.000000 -1.000000
vn 0.000000 0.000000 -1.000000
vn 0.000000 0.000000 -1.000000
vn 0.000000 0.000000 -1.000000
vn -0.000000 0.000000 1.000000
vn -0.000000 0.000000 1.000000
vn -0.000000 0.000000 1.000000
vn -0.000000 0.000000 1.000000
vn 0.209524 0.977803 0.000000
vn 0.209524 0.977803 0.000000
vn 0.000000 0.000000 -1.000000
vn 0.000000 0.000000 -1.000000
vn 0.209524 0.977803 0.000000
vn 0.209524 0.977803 0.000000
vn 0.209524 0.977803 0.000000
vn 0.209524 0.977803 0.000000
vn 0.000000 0.000000 1.000000
vn 0.000000 0.000000 1.000000
vn 0.209524 0.977804 0.000000
vn 0.209524 0.977804 0.000000
vn -0.000000 0.000000 -1.000000
vn -0.000000 0.000000 -1.000000
vn 0.000000 0.000000 -1.000000
vn 0.000000 0.000000 -1.000000
vn 0.000000 0.000000 1.000000
vn 0.000000 0.000000 1.000000
vn -0.000000 0.000000 1.000000
vn -0.000000 0.000000 1.000000
vn 0.235293 0.971924 0.000000
vn 0.235293 0.971924 0.000000
vn 0.000000 0.000000 -1.000000
vn 0.000000 0.000000 -1.000000
vn 0.235293 0.971924 0.000000
vn 0.235293 0.971924 0.000000
vn 0.235293 0.971924 0.000000
vn 0.235293 0.971924 0.000000
vn 0.000000 0.000000 1.000000
vn 0.000000 0.000000 1.000000
vn 0.235293 0.971924 0.000000
vn 0.235293 0.971924 0.000000
vn -0.000001 0.000000 -1.000000
vn -0.000001 0.000000 -1.000000
vn 0.000000 0.000000 -1.000000
vn 0.000000 0.000000 -1.000000
s 1
g SmallHill
usemtl initialShadingGroup
f 37/82/1 38/83/2 2/2/3 4/4/4
s 2
f 36/81/5 37/82/6 4/4/7 6/6/8
s 3
f 35/80/9 36/81/10 6/6/11 8/8/12
s off
f 2/2/13 8/9/14 6/10/15 4/4/16
f 7/11/17 1/1/18 3/3/19 5/12/20
s 4
f 32/75/21 33/76/22 10/14/23 12/15/24
s 5
f 31/74/25 32/75/26 12/15/27 14/17/28
s 6
f 30/73/29 31/74/30 14/17/31 16/19/32
s off
f 10/14/33 16/21/34 14/22/35 12/15/36
f 15/23/37 9/13/38 11/16/39 13/24/40
s 7
f 33/77/41 34/78/42 18/30/43 10/26/44
s 8
f 18/30/45 34/78/46 35/79/47 8/27/48
s 9
f 2/31/49 38/84/50 39/85/51 20/34/52
s off
f 1/35/53 7/36/54 21/37/55 19/38/56
f 8/39/57 2/40/58 20/41/59 22/42/60
s 10
f 29/71/61 30/72/62 16/44/63 24/45/64
s off
f 9/47/65 15/48/66 23/49/67 25/50/68
f 16/51/69 10/52/70 26/53/71 24/54/72
f 17/55/73 9/56/74 25/57/75 27/58/76
f 10/59/77 18/60/78 28/61/79 26/62/80
f 7/63/81 17/64/82 27/65/83 21/66/84
f 18/67/85 8/68/86 22/69/87 28/70/88
s 10
f 40/86/89 41/87/90 30/72/62 29/71/61
s 6
f 41/88/91 42/89/92 31/74/30 30/73/29
s 5
f 42/89/93 43/90/94 32/75/26 31/74/25
s 4
f 43/90/95 44/91/96 33/76/22 32/75/21
s 7
f 44/92/97 45/93/98 34/78/42 33/77/41
s 8
f 35/79/47 34/78/46 45/93/99 46/94/100
s 3
f 46/95/101 47/96/102 36/81/10 35/80/9
s 2
f 47/96/103 48/97/104 37/82/6 36/81/5
s 1
f 48/97/105 49/98/106 38/83/2 37/82/1
s 9
f 39/85/51 38/84/50 49/99/107 50/100/108
s 10
f 51/101/109 52/102/110 41/87/90 40/86/89
s 6
f 52/103/111 53/104/112 42/89/92 41/88/91
s 5
f 53/104/113 54/105/114 43/90/94 42/89/93
s 4
f 54/105/115 55/106/116 44/91/96 43/90/95
s 7
f 55/107/117 56/108/118 45/93/98 44/92/97
s 8
f 46/94/100 45/93/99 56/108/119 57/109/120
s 3
f 57/110/121 58/111/122 47/96/102 46/95/101
s 2
f 58/111/123 59/112/124 48/97/104 47/96/103
s 1
f 59/112/125 60/113/126 49/98/106 48/97/105
s 9
f 50/100/108 49/99/107 60/114/127 61/115/128
s 10
f 15/43/129 52/102/110 51/101/109 23/46/130
s 6
f 13/18/131 53/104/112 52/103/111 15/20/132
s 5
f 11/16/133 54/105/114 53/104/113 13/18/134
s 4
f 9/13/135 55/106/116 54/105/115 11/16/136
s 7
f 9/25/137 17/29/138 56/108/118 55/107/117
s 8
f 57/109/120 56/108/119 17/29/139 7/28/140
s 3
f 5/5/141 58/111/122 57/110/121 7/7/142
s 2
f 3/3/143 59/112/124 58/111/123 5/5/144
s 1
f 1/1/145 60/113/126 59/112/125 3/3/146
s 9
f 61/115/128 60/114/127 1/32/147 19/33/148
