# This file uses centimeters as units for non-parametric coordinates.

mtllib TRoad.mtl
g default
v -98.566360 -3.298162 96.409485
v 97.877106 -3.298162 96.409485
v -98.566360 -0.866717 96.409485
v 97.877106 -0.866717 96.409485
v -98.566360 -0.866717 61.894363
v 97.877106 -0.866717 61.894363
v -98.566360 -3.298156 61.894363
v 97.877106 -3.298157 61.894363
v -98.566360 -3.298162 -65.518860
v 97.877106 -3.298162 -65.518860
v -98.566360 -0.866717 -65.518860
v 97.877106 -0.866717 -65.518860
v -98.566360 -0.866717 -100.033997
v 97.877106 -0.866717 -100.033997
v -98.566360 -3.298162 -100.033997
v 97.877106 -3.298162 -100.033997
v -98.566360 -3.298161 -1.812256
v 97.877106 -3.298161 -1.812256
v -98.566360 -35.657730 96.409485
v 97.877106 -35.657730 96.409485
v -98.566360 -35.657730 61.894363
v 97.877106 -35.657730 61.894363
v -98.566360 -35.657730 -100.033997
v 97.877106 -35.657730 -100.033997
v -98.566360 -35.657730 -65.518860
v 97.877106 -35.657730 -65.518860
v -98.566360 -35.657730 -1.812256
v 97.877106 -35.657730 -1.812256
v -20.475281 -35.657730 -100.033997
v -20.475281 -3.298162 -100.033997
v -20.475281 -3.298162 96.409485
v -20.475281 -35.657730 96.409485
v 62.829937 -35.657730 -100.033997
v 62.829937 -3.298162 -100.033997
v 62.829937 -0.866717 -100.033997
v 62.829937 -0.866717 -65.518860
v 62.829937 -3.298162 -65.518860
v 64.293732 -3.298161 -1.812256
v 64.293732 -3.298162 63.364319
v 64.293732 -0.866717 63.364319
v 62.829937 -0.866717 96.409485
v 62.829937 -3.298162 96.409485
v 62.829937 -35.657730 96.409485
v -64.051224 -35.657730 -100.033997
v -64.051224 -3.298162 -100.033997
v -64.051224 -0.866717 -100.033997
v -64.051224 -0.866717 -65.518860
v -64.051224 -3.298162 -65.518860
v -65.515038 -3.298161 -1.812256
v -65.515038 -3.298162 63.364319
v -65.515038 -0.866717 63.364319
v -64.051224 -0.866717 96.409485
v -64.051224 -3.298162 96.409485
v -64.051224 -35.657730 96.409485
v -98.566360 -35.657730 65.399689
v -98.566360 -3.298159 65.399689
v -98.566360 -0.866717 65.399689
v -64.051224 -0.866717 65.399689
v -64.051224 -3.298162 65.399689
v 62.829937 -3.298162 65.399689
v 62.829937 -0.866717 65.399689
v 97.877106 -0.866717 65.399689
v 97.877106 -3.298159 65.399689
v 97.877106 -35.657730 65.399689
v -66.866600 -35.657730 -100.033997
v -66.866600 -3.298162 -100.033997
v -66.866600 -0.866717 -100.033997
v -66.866600 -0.866717 -65.518860
v -66.866600 -3.298162 -65.518860
v -66.866577 -3.298161 -1.812256
v -66.866600 -3.298159 61.894363
v -66.866577 -0.866717 61.894363
v -66.866577 -0.866717 65.399689
v -66.866577 -0.866717 96.409485
v -66.866600 -3.298162 96.409485
v -66.866600 -35.657730 96.409485
v 65.911331 -35.657730 -100.033997
v 65.911331 -3.298162 -100.033997
v 65.911331 -0.866717 -100.033997
v 65.911331 -0.866717 -65.518860
v 65.911331 -3.298162 -65.518860
v 65.911331 -3.298161 -1.812256
v 65.911331 -3.298159 61.894363
v 65.911331 -0.866717 61.894363
v 65.911331 -0.866717 65.399689
v 65.911331 -0.866717 96.409485
v 65.911331 -3.298162 96.409485
v 65.911331 -35.657730 96.409485
v -0.610647 -3.298162 -100.033997
v -0.610647 -3.298162 -65.518860
v -0.610647 -3.298161 -1.812256
v -0.610647 -3.298162 63.364319
v -0.610647 -3.298162 65.399689
v -0.610647 -3.298162 96.409485
v -0.610647 -0.866718 -100.033997
v -0.610647 -0.866717 -65.518860
vt 0.375000 0.000000
vt 0.625000 0.000000
vt 0.375000 0.250000
vt 0.625000 0.250000
vt 0.375000 0.500000
vt 0.625000 0.500000
vt 0.875000 0.209612
vt 0.875000 0.250000
vt 0.125000 0.209612
vt 0.125000 0.250000
vt 0.375000 0.000000
vt 0.625000 0.000000
vt 0.625000 0.250000
vt 0.375000 0.250000
vt 0.625000 0.500000
vt 0.375000 0.500000
vt 0.625000 0.750000
vt 0.375000 0.750000
vt 0.875000 0.000000
vt 0.875000 0.250000
vt 0.125000 0.000000
vt 0.125000 0.250000
vt 0.000000 0.000000
vt 1.000000 0.000000
vt 1.000000 1.602028
vt 0.000000 1.602028
vt 0.000000 0.811669
vt 1.000000 0.811669
vt 0.000000 0.000000
vt 1.000000 0.000000
vt 1.000000 1.000000
vt 0.000000 1.000000
vt 0.000000 0.000000
vt 1.000000 -0.050551
vt 1.000000 1.000000
vt 0.000000 1.000000
vt 0.000000 -0.050551
vt 1.000000 0.000000
vt 1.000000 1.000000
vt 0.000000 1.000000
vt 0.000000 0.000000
vt 1.000000 0.000000
vt 1.000000 1.000000
vt 0.000000 1.000000
vt 0.000000 0.000000
vt 1.000000 0.000000
vt 1.000000 1.000000
vt 0.000000 1.000000
vt 0.000000 0.000000
vt 1.000000 0.000000
vt 1.000000 1.000000
vt 0.000000 1.000000
vt 0.000000 0.000000
vt 1.000000 0.000000
vt 1.000000 1.000000
vt 0.000000 1.000000
vt 0.000000 0.000000
vt 1.000000 0.000000
vt 1.000000 1.000000
vt 0.000000 1.000000
vt 0.000000 -0.806266
vt 1.000000 0.000000
vt 1.000000 1.000000
vt 0.000000 -0.000000
vt 0.000000 0.000000
vt 1.000000 -0.806266
vt 1.000000 -0.000000
vt 0.000000 1.000000
vt 0.500000 1.000000
vt 0.500000 0.000000
vt 0.500000 0.250000
vt 0.500000 0.000000
vt 0.500000 1.000000
vt 0.750000 1.000000
vt 0.797057 0.000000
vt 0.562500 0.749998
vt 0.562500 0.500001
vt 0.562500 0.250000
vt 0.782422 0.000000
vt 0.750000 0.811669
vt 0.775534 1.587378
vt 0.562500 0.500000
vt 0.562500 0.250000
vt 0.562500 0.000002
vt 0.202943 0.000000
vt 0.250000 1.000000
vt 0.250000 1.000000
vt 0.237266 -0.000000
vt 0.437500 0.749998
vt 0.437500 0.500001
vt 0.437500 0.250000
vt 0.239849 0.000000
vt 0.250000 0.811669
vt 0.224466 1.587378
vt 0.437500 0.500000
vt 0.437500 0.250000
vt 0.437500 0.000002
vt 0.762734 -0.000000
vt 0.750000 1.000000
vt 0.425266 0.500000
vt 0.437500 0.250000
vt 0.500000 0.250000
vt 0.437500 0.500000
vt 0.425266 0.250000
vt 0.562500 0.250000
vt 0.586739 0.500000
vt 0.585671 0.250000
vt 0.562500 0.500000
vt 0.000000 0.046875
vt 1.000000 0.046875
vt 1.000000 0.000000
vt 0.000000 0.000000
vt 0.000000 0.046875
vt 1.000000 0.046875
vt 1.000000 0.000000
vt 0.000000 0.000000
vt 0.000000 0.000000
vt 1.000000 0.000000
vt 1.000000 0.046875
vt 0.000001 0.046874
vt 0.000000 0.000000
vt 1.000000 0.000000
vt 0.999999 0.046874
vt 0.000000 0.046875
vt 0.500000 1.000000
vt 0.250000 0.104806
vt 0.500000 -0.025276
vt 0.250000 0.250000
vt 0.375000 0.375000
vt 0.531250 0.250000
vt 0.437500 0.375000
vt 0.431383 0.375000
vt 0.531250 0.250000
vt 0.574086 0.375000
vt 0.562500 0.375000
vt 0.625000 0.375000
vt 0.750000 0.250000
vt 0.500000 -0.025276
vt 0.750000 0.104806
vt 0.500000 1.000000
vt 0.125000 1.000000
vt 0.118633 -0.000000
vt 0.406250 0.749999
vt 0.406250 0.500000
vt 0.406250 0.250000
vt 0.500000 0.046875
vt 0.500000 0.000000
vt 0.119925 0.000000
vt 0.125000 0.811669
vt 0.112233 1.594703
vt 0.500000 0.046875
vt 0.500000 0.000000
vt 0.406250 0.500000
vt 0.406250 0.375000
vt 0.406250 0.250000
vt 0.406250 0.000001
vt 0.881367 -0.000000
vt 0.875000 1.000000
vt 0.875000 1.000000
vt 0.898528 0.000000
vt 0.593750 0.749999
vt 0.593750 0.500000
vt 0.593750 0.250000
vt 0.500000 0.046875
vt 0.500000 0.000000
vt 0.891211 0.000000
vt 0.875000 0.811669
vt 0.887767 1.594703
vt 0.500000 0.046875
vt 0.500000 0.000000
vt 0.593750 0.500000
vt 0.593750 0.375000
vt 0.593750 0.250000
vt 0.593750 0.000001
vt 0.101472 0.000000
vt 0.125000 1.000000
vt 0.506003 0.500000
vt 0.500000 0.250000
vt 0.511136 0.000000
vt 0.500000 0.811669
vt 0.500000 1.587378
vt 0.500000 0.500000
vt 0.502734 0.375000
vt 0.505469 0.250000
vt 0.500000 0.250000
vt 0.572828 0.250000
vt 0.584460 0.500000
vt 0.506003 0.500000
vt 0.435220 0.250000
vt 0.435595 0.500000
vn 0.000000 0.000000 1.000000
vn 0.000000 0.000000 1.000000
vn 0.000000 0.000000 1.000000
vn 0.000000 0.000000 1.000000
vn 0.000000 1.000000 0.000000
vn 0.000000 1.000000 0.000000
vn 0.000000 1.000000 0.000000
vn 0.000000 1.000000 0.000000
vn 1.000000 0.000000 0.000000
vn 1.000000 0.000000 0.000000
vn 1.000000 0.000000 0.000000
vn 1.000000 0.000000 0.000000
vn -1.000000 0.000000 0.000000
vn -1.000000 0.000000 0.000000
vn -1.000000 0.000000 0.000000
vn -1.000000 0.000000 0.000000
vn 0.000000 1.000000 0.000000
vn 0.000000 1.000000 0.000000
vn 0.000000 1.000000 0.000000
vn 0.000000 1.000000 0.000000
vn 0.000000 0.000000 -1.000000
vn 0.000000 0.000000 -1.000000
vn 0.000000 0.000000 -1.000000
vn 0.000000 0.000000 -1.000000
vn 1.000000 0.000000 0.000000
vn 1.000000 0.000000 0.000000
vn 1.000000 0.000000 0.000000
vn 1.000000 0.000000 0.000000
vn -1.000000 0.000000 0.000000
vn -1.000000 0.000000 0.000000
vn -1.000000 0.000000 0.000000
vn -1.000000 0.000000 0.000000
vn 0.000000 1.000000 -0.000000
vn 0.000000 1.000000 -0.000000
vn 0.000000 1.000000 -0.000000
vn 0.000000 1.000000 -0.000000
vn -0.000000 1.000000 -0.000000
vn -0.000000 1.000000 -0.000000
vn -0.000000 1.000000 -0.000000
vn -0.000000 1.000000 -0.000000
vn 0.000000 0.000000 1.000000
vn 0.000000 0.000000 1.000000
vn 0.000000 0.000000 1.000000
vn 0.000000 0.000000 1.000000
vn -1.000000 0.000000 0.000000
vn -1.000000 0.000000 0.000000
vn -1.000000 0.000000 0.000000
vn -1.000000 0.000000 0.000000
vn 1.000000 0.000000 0.000000
vn 1.000000 0.000000 0.000000
vn 1.000000 0.000000 0.000000
vn 1.000000 0.000000 0.000000
vn 0.000000 0.000000 -1.000000
vn 0.000000 0.000000 -1.000000
vn 0.000000 0.000000 -1.000000
vn 0.000000 0.000000 -1.000000
vn -1.000000 0.000000 0.000000
vn -1.000000 0.000000 0.000000
vn -1.000000 0.000000 0.000000
vn -1.000000 0.000000 0.000000
vn 1.000000 0.000000 0.000000
vn 1.000000 0.000000 0.000000
vn 1.000000 0.000000 0.000000
vn 1.000000 0.000000 0.000000
vn -1.000000 0.000000 0.000000
vn -1.000000 0.000000 0.000000
vn -1.000000 0.000000 0.000000
vn -1.000000 0.000000 0.000000
vn 1.000000 0.000000 0.000000
vn 1.000000 0.000000 0.000000
vn 1.000000 0.000000 0.000000
vn 1.000000 0.000000 0.000000
vn -1.000000 0.000000 0.000000
vn -1.000000 0.000000 0.000000
vn -1.000000 0.000000 0.000000
vn -1.000000 0.000000 0.000000
vn 1.000000 0.000000 0.000000
vn 1.000000 0.000000 0.000000
vn 1.000000 0.000000 0.000000
vn 1.000000 0.000000 0.000000
vn 0.000000 0.000000 -1.000000
vn 0.000000 0.000000 -1.000000
vn 0.000000 0.000000 -1.000000
vn 0.000000 0.000000 -1.000000
vn 0.000000 0.000000 1.000000
vn 0.000000 0.000000 1.000000
vn 0.000000 0.000000 1.000000
vn 0.000000 0.000000 1.000000
vn 0.000000 0.000000 -1.000000
vn 0.000000 0.000000 -1.000000
vn -0.000000 1.000000 -0.000000
vn -0.000000 1.000000 -0.000000
vn -0.000000 1.000000 -0.000000
vn -0.000000 1.000000 -0.000000
vn 0.000000 1.000000 -0.000000
vn 0.000000 1.000000 -0.000000
vn 0.000000 1.000000 -0.000000
vn 0.000000 1.000000 -0.000000
vn -0.000000 1.000000 0.000000
vn -0.000000 1.000000 0.000000
vn 0.000000 1.000000 0.000000
vn 0.000000 1.000000 0.000000
vn 0.000000 1.000000 0.000000
vn 0.000000 1.000000 0.000000
vn 0.000000 1.000000 0.000000
vn 0.000000 1.000000 0.000000
vn 0.000000 0.000000 1.000000
vn 0.000000 0.000000 1.000000
vn 0.000000 0.000000 -1.000000
vn 0.000000 0.000000 -1.000000
vn 0.000000 0.000000 -1.000000
vn 0.000000 0.000000 -1.000000
vn 0.000000 0.000000 -1.000000
vn 0.000000 0.000000 -1.000000
vn 0.000000 1.000000 0.000000
vn 0.000000 1.000000 0.000000
vn 0.000000 1.000000 0.000000
vn 0.000000 1.000000 0.000000
vn -0.000000 1.000000 -0.000000
vn -0.000000 1.000000 -0.000000
vn -0.000000 1.000000 -0.000000
vn -0.000000 1.000000 -0.000000
vn 0.000000 1.000000 0.000000
vn 0.000000 1.000000 0.000000
vn 0.000000 1.000000 -0.000000
vn 0.000000 1.000000 -0.000000
vn 0.000000 1.000000 -0.000000
vn 0.000000 1.000000 -0.000000
vn 0.000000 1.000000 -0.000000
vn 0.000000 1.000000 -0.000000
vn 0.000000 0.000000 1.000000
vn 0.000000 0.000000 1.000000
vn 0.000000 0.000000 1.000000
vn 0.000000 0.000000 1.000000
vn 0.000000 0.000000 1.000000
vn 0.000000 0.000000 1.000000
vn 0.811847 0.000000 -0.583870
vn 0.999020 0.000000 -0.044254
vn 0.999020 0.000000 -0.044254
vn 0.811847 0.000000 -0.583870
vn -0.999020 0.000000 -0.044253
vn -0.999020 0.000000 -0.044253
vn -0.811851 0.000000 -0.583865
vn -0.811851 0.000000 -0.583865
vn 0.000000 0.000000 -1.000000
vn -0.043728 0.000000 -0.999043
vn -0.043728 0.000000 -0.999043
vn 0.000000 0.000000 -1.000000
vn 0.736133 -0.000002 -0.676837
vn 0.044430 -0.000000 -0.999013
vn 0.044431 -0.000000 -0.999012
vn 0.736133 -0.000002 -0.676837
vn 0.000000 0.000000 1.000000
vn 0.000000 0.000000 1.000000
vn -0.000000 0.000000 1.000000
vn -0.000000 0.000000 1.000000
vn 0.000000 0.000000 1.000000
vn 0.000000 0.000000 1.000000
vn -0.000002 0.000000 1.000000
vn -0.000002 0.000000 1.000000
vn -1.000000 0.000000 0.000000
vn -1.000000 0.000000 0.000000
vn -1.000000 0.000000 0.000000
vn -1.000000 0.000000 0.000000
vn 0.000000 1.000000 0.000000
vn 0.000000 1.000000 0.000000
vn 1.000000 0.000000 0.000000
vn 1.000000 0.000000 0.000000
vn 0.000000 1.000000 0.000000
vn 0.000000 1.000000 0.000000
vn -1.000000 0.000000 0.000000
vn -1.000000 0.000000 0.000000
vn 0.000000 1.000000 0.000000
vn 0.000000 1.000000 0.000000
vn 1.000000 0.000000 0.000000
vn 1.000000 0.000000 0.000000
vn 1.000000 0.000000 0.000000
vn 1.000000 0.000000 0.000000
vn 0.000000 0.000000 -1.000000
vn 0.000000 0.000000 -1.000000
vn 0.000000 0.000000 -1.000000
vn 0.000000 0.000000 -1.000000
vn 0.000000 1.000000 0.000000
vn 0.000000 1.000000 0.000000
vn 0.000000 0.000000 1.000000
vn 0.000000 0.000000 1.000000
vn -0.000000 1.000000 -0.000000
vn -0.000000 1.000000 -0.000000
vn 0.000000 1.000000 -0.000000
vn 0.000000 1.000000 -0.000000
vn -0.000000 0.000000 -1.000000
vn -0.000000 0.000000 -1.000000
vn 0.000000 1.000000 0.000000
vn 0.000000 1.000000 0.000000
vn 0.000000 1.000000 0.000000
vn 0.000000 0.000000 1.000000
vn 0.000000 0.000000 1.000000
vn 0.000000 0.000000 1.000000
vn 0.000000 0.000000 1.000000
vn 0.000000 0.000000 -1.000000
vn 0.000000 0.000000 -1.000000
vn 0.000000 1.000000 0.000000
vn 0.000000 1.000000 0.000000
vn 0.000002 0.000000 1.000000
vn 0.000002 0.000000 1.000000
vn -0.672525 0.000000 -0.740074
vn -0.672525 0.000000 -0.740074
vn 0.000000 1.000000 0.000000
vn 0.000000 1.000000 0.000000
vn 0.000000 1.000000 0.000000
vn 0.000000 0.000000 1.000000
vn 0.000000 0.000000 1.000000
vn 0.000000 1.000000 -0.000000
vn 0.000000 1.000000 -0.000000
vn 0.000000 1.000000 0.000000
vn 0.000000 1.000000 0.000000
vn 0.000000 1.000000 0.000000
vn 0.000000 0.000000 1.000000
vn 0.000000 0.000000 1.000000
vn 0.000000 0.000000 1.000000
vn 0.000000 0.000000 1.000000
vn 0.000000 0.000000 -1.000000
vn 0.000000 0.000000 -1.000000
vn 0.000000 0.000000 -1.000000
vn 0.000000 0.000000 -1.000000
vn 0.000000 0.000000 1.000000
vn 0.000000 0.000000 1.000000
vn 0.000000 0.000000 -1.000000
vn 0.000000 0.000000 -1.000000
s 1
g TRoad
usemtl initialShadingGroup
f 86/173/1 87/174/2 2/2/3 4/4/4
s 2
f 84/171/5 85/172/6 62/136/7 6/6/8
s 3
f 62/137/9 63/139/10 8/7/11 6/8/12
s 4
f 7/9/13 56/126/14 57/128/15 5/10/16
s 5
f 12/13/17 14/15/18 79/162/19 80/163/20
s 6
f 78/161/21 79/162/22 14/15/23 16/17/24
s off
f 16/19/25 14/20/26 12/13/27 10/12/28
f 13/22/29 15/21/30 9/11/31 11/14/32
s 7
f 81/166/33 82/167/34 18/28/35 10/24/36
s 8
f 18/28/37 82/167/38 83/168/39 8/25/40
s 9
f 2/29/41 87/175/42 88/176/43 20/32/44
s 10
f 55/125/45 56/127/46 7/34/47 21/35/48
s 11
f 8/37/49 63/138/50 64/140/51 22/40/52
s 12
f 77/159/53 78/160/54 16/42/55 24/43/56
s off
f 15/46/57 23/47/58 25/48/59 9/45/60
f 26/51/61 24/52/62 16/49/63 10/50/64
f 17/53/65 9/54/66 25/55/67 27/56/68
f 10/57/69 18/58/70 28/59/71 26/60/72
f 7/61/73 17/62/74 27/63/75 21/64/76
f 18/65/77 8/66/78 22/67/79 28/68/80
s 12
f 44/87/81 45/88/82 30/70/83 29/69/84
s 9
f 32/73/85 31/72/86 53/98/87 54/99/88
s 12
f 29/69/84 30/70/83 34/75/89 33/74/90
s 15
f 95/188/91 96/185/92 36/186/93 35/187/94
s 7
f 38/80/95 37/79/96 90/179/97 91/180/98
s 8
f 39/81/99 38/80/100 91/180/101 92/181/102
s 16
f 92/182/103 93/183/104 60/134/105 39/108/106
s 9
f 43/86/107 42/85/108 31/72/86 32/73/85
s 12
f 65/141/109 66/142/110 45/88/82 44/87/81
s 17
f 66/143/111 67/144/112 46/90/113 45/89/114
s 18
f 47/91/115 46/90/116 67/144/117 68/145/118
s 7
f 69/148/119 70/149/120 49/93/121 48/92/122
s 8
f 50/94/123 49/93/124 70/149/125 71/150/126
s 20
f 72/153/127 73/154/128 58/131/129 51/95/130
s 21
f 74/155/131 75/156/132 53/97/133 52/96/134
s 9
f 54/99/88 53/98/87 75/157/135 76/158/136
s 22
f 51/71/137 58/130/138 59/133/139 50/102/140
s 23
f 60/134/141 61/135/142 40/82/143 39/108/144
s 24
f 8/109/145 83/169/146 84/170/147 6/112/148
s 25
f 50/113/149 71/151/150 72/152/151 51/116/152
s 26
f 80/164/153 81/165/154 10/118/155 12/119/156
s 27
f 68/146/157 69/147/158 48/122/159 47/123/160
s 10
f 1/33/161 56/127/46 55/125/45 19/36/162
s 4
f 57/128/15 56/126/14 1/1/163 3/3/164
s 20
f 73/154/128 74/155/165 52/96/166 58/131/129
s 22
f 59/133/139 58/130/138 52/78/167 53/105/168
s 16
f 93/183/104 94/184/169 42/107/170 60/134/105
s 23
f 41/83/171 61/135/142 60/134/141 42/107/172
s 2
f 62/136/7 85/172/6 86/173/173 4/4/174
s 3
f 2/2/175 63/139/10 62/137/9 4/4/176
s 11
f 64/140/51 63/138/50 2/38/177 20/39/178
s 12
f 15/41/179 66/142/110 65/141/109 23/44/180
s 17
f 13/16/181 67/144/112 66/143/111 15/18/182
s 18
f 67/144/117 13/16/183 11/14/184 68/145/118
s 27
f 9/121/185 69/147/158 68/146/157 11/124/186
s 7
f 9/23/187 17/27/188 70/149/120 69/148/119
s 8
f 71/150/126 70/149/125 17/27/189 7/26/190
s 25
f 72/152/151 71/151/150 7/114/191 5/115/192
s 20
f 57/129/193 73/154/128 72/153/127 5/5/194
f 3/3/195 74/155/165 73/154/128 57/129/193
s 21
f 1/1/196 75/156/132 74/155/131 3/3/197
s 9
f 76/158/136 75/157/135 1/30/198 19/31/199
s 12
f 33/74/90 34/75/89 78/160/54 77/159/53
s 6
f 34/76/200 35/77/201 79/162/22 78/161/21
s 5
f 79/162/19 35/77/202 36/78/203 80/163/20
s 26
f 37/117/204 81/165/154 80/164/153 36/120/205
s 7
f 37/79/96 38/80/95 82/167/34 81/166/33
s 8
f 83/168/39 82/167/38 38/80/100 39/81/99
s 24
f 84/170/147 83/169/146 39/110/206 40/111/207
s 2
f 40/82/208 61/135/209 85/172/6 84/171/5
f 86/173/173 85/172/6 61/135/209 41/83/210
s 1
f 41/83/211 42/84/212 87/174/2 86/173/1
s 9
f 88/176/43 87/175/42 42/85/108 43/86/107
s 15
f 47/189/213 96/185/92 95/188/91 46/190/214
s 7
f 91/180/98 90/179/97 48/92/122 49/93/121
s 8
f 92/181/102 91/180/101 49/93/124 50/94/123
s 16
f 59/132/215 93/183/104 92/182/103 50/103/216
f 53/104/217 94/184/169 93/183/104 59/132/215
s 28
f 90/178/218 37/105/219 36/186/220 96/185/221
s 29
f 34/106/222 89/177/223 95/188/224 35/187/225
s 28
f 48/101/226 90/178/218 96/185/221 47/189/227
s 29
f 89/177/223 45/100/228 46/190/229 95/188/224
