# This file uses centimeters as units for non-parametric coordinates.

mtllib UpHillContinue.mtl
g default
v -123.290108 -3.298163 98.103683
v 107.865440 49.852386 98.103683
v -123.290108 -0.866719 98.103683
v 107.865440 52.283829 98.103683
v -123.290108 -0.866719 63.588562
v 107.865440 52.283829 63.588562
v -123.290108 -3.298158 63.588562
v 107.865440 49.852386 63.588562
v -123.290108 -3.298163 -63.824677
v 107.865440 49.852386 -63.824677
v -123.290108 -0.866719 -63.824677
v 107.865440 52.283829 -63.824677
v -123.290108 -0.866719 -98.339783
v 107.865440 52.283829 -98.339783
v -123.290108 -3.298163 -98.339783
v 107.865440 49.852386 -98.339783
v -123.290108 -3.298163 -0.118057
v 107.865440 49.852386 -0.118057
v -123.290108 -35.657730 98.103683
v 107.865440 17.492817 98.103683
v -123.290108 -35.657730 63.588562
v 107.865440 17.492817 63.588562
v -123.290108 -35.657730 -98.339783
v 107.865440 17.492817 -98.339783
v -123.290108 -35.657730 -63.824677
v 107.865440 17.492817 -63.824677
v -123.290108 -35.657730 -0.118057
v 107.865440 17.492817 -0.118057
v 30.821983 -0.100777 -98.339783
v 30.821983 32.258793 -98.339783
v 30.821983 34.690235 -98.339783
v 30.821983 34.690235 -63.824677
v 30.821983 32.258793 -63.824677
v 30.821983 32.258793 -0.118057
v 30.821983 32.258797 63.588562
v 30.821983 34.690235 63.588562
v 30.821983 34.690235 98.103683
v 30.821983 32.258793 98.103683
v 30.821983 -0.100777 98.103683
v -0.022167 -6.574459 -98.339783
v -0.022167 25.785109 -98.339783
v -0.022167 28.216555 -98.339783
v -0.022167 28.216555 -63.824677
v -0.022167 25.785109 -63.824677
v -0.022167 25.785110 -0.118057
v -0.022167 25.785112 63.588562
v -0.022167 28.216555 63.588562
v -0.022167 28.216555 98.103683
v -0.022167 25.785109 98.103683
v -0.022167 -6.574459 98.103683
v -32.007607 -13.559130 -98.339783
v -32.007607 18.800438 -98.339783
v -32.007607 21.231884 -98.339783
v -32.007607 21.231884 -63.824677
v -32.007607 18.800438 -63.824677
v -32.007607 18.800440 -0.118057
v -32.007607 18.800442 63.588562
v -32.007607 21.231884 63.588562
v -32.007607 21.231884 98.103683
v -32.007607 18.800438 98.103683
v -32.007607 -13.559130 98.103683
vt 0.375000 0.000000
vt 0.625000 0.000000
vt 0.375000 0.250000
vt 0.625000 0.250000
vt 0.375000 0.500000
vt 0.625000 0.500000
vt 0.375000 0.481027
vt 0.625000 0.481027
vt 0.875000 0.209612
vt 0.875000 0.250000
vt 0.125000 0.209612
vt 0.125000 0.250000
vt 0.375000 0.000000
vt 0.625000 0.000000
vt 0.625000 0.250000
vt 0.375000 0.250000
vt 0.625000 0.500000
vt 0.375000 0.500000
vt 0.625000 0.750000
vt 0.375000 0.750000
vt 0.875000 0.000000
vt 0.875000 0.250000
vt 0.125000 0.000000
vt 0.125000 0.250000
vt 0.000000 0.000000
vt 1.000000 0.000000
vt 1.000000 1.602028
vt 0.000000 1.602028
vt 0.000000 0.811669
vt 1.000000 0.811669
vt 0.000000 0.000000
vt 1.000000 0.000000
vt 1.000000 1.000000
vt 0.000000 1.000000
vt 0.000000 0.000000
vt 1.000000 -0.050551
vt 1.000000 1.000000
vt 0.000000 1.000000
vt 0.000000 -0.050551
vt 1.000000 0.000000
vt 1.000000 1.000000
vt 0.000000 1.000000
vt 0.000000 0.000000
vt 1.000000 0.000000
vt 1.000000 1.000000
vt 0.000000 1.000000
vt 0.000000 0.000000
vt 1.000000 0.000000
vt 1.000000 1.000000
vt 0.000000 1.000000
vt 0.000000 0.000000
vt 1.000000 0.000000
vt 1.000000 1.000000
vt 0.000000 1.000000
vt 0.000000 0.000000
vt 1.000000 0.000000
vt 1.000000 1.000000
vt 0.000000 1.000000
vt 0.000000 0.000000
vt 1.000000 0.000000
vt 1.000000 1.000000
vt 0.000000 1.000000
vt 0.000000 -0.806266
vt 1.000000 0.000000
vt 1.000000 1.000000
vt 0.000000 -0.000000
vt 0.000000 0.000000
vt 1.000000 -0.806266
vt 1.000000 -0.000000
vt 0.000000 1.000000
vt 0.666703 1.000000
vt 0.666703 0.000000
vt 0.541676 0.750000
vt 0.541676 0.500000
vt 0.541676 0.250000
vt 0.541676 0.000000
vt 0.666703 0.000000
vt 0.666703 0.811669
vt 0.666703 1.602028
vt 0.541676 0.481027
vt 0.541676 0.500000
vt 0.541676 0.250000
vt 0.541676 0.000000
vt 0.333297 0.000000
vt 0.333297 1.000000
vt 0.533268 1.000000
vt 0.533268 0.000000
vt 0.508317 0.750000
vt 0.508317 0.500000
vt 0.508317 0.250000
vt 0.508317 0.000000
vt 0.533268 0.000000
vt 0.533268 0.811669
vt 0.533268 1.602028
vt 0.508317 0.481027
vt 0.508317 0.500000
vt 0.508317 0.250000
vt 0.508317 0.000000
vt 0.466732 0.000000
vt 0.466732 1.000000
vt 0.394896 1.000000
vt 0.394896 0.000000
vt 0.473724 0.750000
vt 0.473724 0.500000
vt 0.473724 0.250000
vt 0.473724 0.000000
vt 0.394896 0.000000
vt 0.394896 0.811669
vt 0.394897 1.602028
vt 0.473724 0.481027
vt 0.473724 0.500000
vt 0.473724 0.250000
vt 0.473724 0.000000
vt 0.605104 0.000000
vt 0.605104 1.000000
vn 0.000000 0.000000 1.000000
vn 0.000000 0.000000 1.000000
vn 0.000000 0.000000 1.000000
vn 0.000000 0.000000 1.000000
vn -0.217726 0.976010 0.000000
vn -0.217726 0.976010 0.000000
vn -0.222628 0.974903 0.000000
vn -0.222628 0.974903 0.000000
vn 0.000000 0.000000 -1.000000
vn 0.000000 0.000000 -1.000000
vn 0.000000 0.000000 -1.000000
vn 0.000000 0.000000 -1.000000
vn 1.000000 0.000000 0.000000
vn 1.000000 0.000000 0.000000
vn 1.000000 0.000000 0.000000
vn 1.000000 0.000000 0.000000
vn -1.000000 0.000000 0.000000
vn -1.000000 0.000000 0.000000
vn -1.000000 0.000000 0.000000
vn -1.000000 0.000000 0.000000
vn 0.000000 0.000000 1.000000
vn 0.000000 0.000000 1.000000
vn 0.000000 0.000000 1.000000
vn 0.000000 0.000000 1.000000
vn -0.217726 0.976010 0.000000
vn -0.217726 0.976010 0.000000
vn -0.222628 0.974903 0.000000
vn -0.222628 0.974903 0.000000
vn 0.000000 0.000000 -1.000000
vn 0.000000 0.000000 -1.000000
vn 0.000000 0.000000 -1.000000
vn 0.000000 0.000000 -1.000000
vn 1.000000 0.000000 0.000000
vn 1.000000 0.000000 0.000000
vn 1.000000 0.000000 0.000000
vn 1.000000 0.000000 0.000000
vn -1.000000 0.000000 0.000000
vn -1.000000 0.000000 0.000000
vn -1.000000 0.000000 0.000000
vn -1.000000 0.000000 0.000000
vn -0.217726 0.976010 -0.000000
vn -0.217726 0.976010 -0.000000
vn -0.222628 0.974903 0.000000
vn -0.222628 0.974903 0.000000
vn -0.222628 0.974903 -0.000000
vn -0.217726 0.976010 -0.000000
vn -0.217726 0.976010 -0.000000
vn -0.222628 0.974903 -0.000000
vn 0.000000 0.000000 1.000000
vn -0.000000 0.000000 1.000000
vn -0.000000 0.000000 1.000000
vn 0.000000 0.000000 1.000000
vn -1.000000 0.000000 0.000000
vn -1.000000 0.000000 0.000000
vn -1.000000 0.000000 0.000000
vn -1.000000 0.000000 0.000000
vn 1.000000 0.000000 0.000000
vn 1.000000 0.000000 0.000000
vn 1.000000 0.000000 0.000000
vn 1.000000 0.000000 0.000000
vn -0.000000 0.000000 -1.000000
vn -0.000000 0.000000 -1.000000
vn 0.000000 0.000000 -1.000000
vn 0.000000 0.000000 -1.000000
vn -1.000000 0.000000 0.000000
vn -1.000000 0.000000 0.000000
vn -1.000000 0.000000 0.000000
vn -1.000000 0.000000 0.000000
vn 1.000000 0.000000 0.000000
vn 1.000000 0.000000 0.000000
vn 1.000000 0.000000 0.000000
vn 1.000000 0.000000 0.000000
vn -1.000000 0.000000 0.000000
vn -1.000000 0.000000 0.000000
vn -1.000000 0.000000 0.000000
vn -1.000000 0.000000 0.000000
vn 1.000000 0.000000 0.000000
vn 1.000000 0.000000 0.000000
vn 1.000000 0.000000 0.000000
vn 1.000000 0.000000 0.000000
vn -1.000000 0.000000 0.000000
vn -1.000000 0.000000 0.000000
vn -1.000000 0.000000 0.000000
vn -1.000000 0.000000 0.000000
vn 1.000000 0.000000 0.000000
vn 1.000000 0.000000 0.000000
vn 1.000000 0.000000 0.000000
vn 1.000000 0.000000 0.000000
vn -0.000000 0.000000 -1.000000
vn -0.000000 0.000000 -1.000000
vn 0.000000 0.000000 -1.000000
vn 0.000000 0.000000 -1.000000
vn -0.209453 0.977819 0.000000
vn -0.209453 0.977819 0.000000
vn 0.000000 0.000000 1.000000
vn 0.000000 0.000000 1.000000
vn -0.209453 0.977819 -0.000000
vn -0.209453 0.977819 -0.000000
vn -0.209453 0.977819 -0.000000
vn -0.209453 0.977819 -0.000000
vn 0.000000 0.000000 -1.000000
vn 0.000000 0.000000 -1.000000
vn -0.209453 0.977819 0.000000
vn -0.209453 0.977819 0.000000
vn 0.000000 0.000000 1.000000
vn 0.000000 0.000000 1.000000
vn -0.000000 0.000000 1.000000
vn -0.000000 0.000000 1.000000
vn -0.000000 0.000000 -1.000000
vn -0.000000 0.000000 -1.000000
vn -0.000001 0.000000 -1.000000
vn -0.000001 0.000000 -1.000000
vn -0.229631 0.973278 0.000000
vn -0.229631 0.973278 0.000000
vn 0.000000 0.000000 1.000000
vn 0.000000 0.000000 1.000000
vn -0.229631 0.973278 -0.000000
vn -0.229631 0.973278 -0.000000
vn -0.229631 0.973278 -0.000000
vn -0.229631 0.973278 -0.000000
vn 0.000000 0.000000 -1.000000
vn 0.000000 0.000000 -1.000000
vn -0.229631 0.973278 0.000000
vn -0.229631 0.973278 0.000000
vn -0.000001 0.000000 1.000000
vn -0.000001 0.000000 1.000000
vn 0.000000 0.000000 1.000000
vn 0.000000 0.000000 1.000000
vn 0.000000 0.000000 -1.000000
vn 0.000000 0.000000 -1.000000
vn -0.000001 0.000000 -1.000000
vn -0.000001 0.000000 -1.000000
vn -0.235293 0.971924 0.000000
vn -0.235293 0.971924 0.000000
vn 0.000000 0.000000 1.000000
vn 0.000000 0.000000 1.000000
vn -0.235293 0.971924 -0.000000
vn -0.235293 0.971924 -0.000000
vn -0.235293 0.971924 -0.000000
vn -0.235293 0.971924 -0.000000
vn 0.000000 0.000000 -1.000000
vn 0.000000 0.000000 -1.000000
vn -0.235293 0.971924 0.000000
vn -0.235293 0.971924 0.000000
vn -0.000001 0.000000 1.000000
vn -0.000001 0.000000 1.000000
vn 0.000000 0.000000 1.000000
vn 0.000000 0.000000 1.000000
s 1
g UpHillContinue
usemtl initialShadingGroup
f 37/82/1 38/83/2 2/2/3 4/4/4
s 2
f 36/81/5 37/82/6 4/4/7 6/6/8
s 3
f 35/80/9 36/81/10 6/6/11 8/8/12
s off
f 2/2/13 8/9/14 6/10/15 4/4/16
f 7/11/17 1/1/18 3/3/19 5/12/20
s 4
f 32/75/21 33/76/22 10/14/23 12/15/24
s 5
f 31/74/25 32/75/26 12/15/27 14/17/28
s 6
f 30/73/29 31/74/30 14/17/31 16/19/32
s off
f 10/14/33 16/21/34 14/22/35 12/15/36
f 15/23/37 9/13/38 11/16/39 13/24/40
s 7
f 33/77/41 34/78/42 18/30/43 10/26/44
s 8
f 18/30/45 34/78/46 35/79/47 8/27/48
s 9
f 2/31/49 38/84/50 39/85/51 20/34/52
s off
f 1/35/53 7/36/54 21/37/55 19/38/56
f 8/39/57 2/40/58 20/41/59 22/42/60
s 10
f 29/71/61 30/72/62 16/44/63 24/45/64
s off
f 9/47/65 15/48/66 23/49/67 25/50/68
f 16/51/69 10/52/70 26/53/71 24/54/72
f 17/55/73 9/56/74 25/57/75 27/58/76
f 10/59/77 18/60/78 28/61/79 26/62/80
f 7/63/81 17/64/82 27/65/83 21/66/84
f 18/67/85 8/68/86 22/69/87 28/70/88
s 10
f 40/86/89 41/87/90 30/72/62 29/71/61
s 6
f 41/88/91 42/89/92 31/74/30 30/73/29
s 5
f 42/89/93 43/90/94 32/75/26 31/74/25
s 4
f 43/90/95 44/91/96 33/76/22 32/75/21
s 7
f 44/92/97 45/93/98 34/78/42 33/77/41
s 8
f 35/79/47 34/78/46 45/93/99 46/94/100
s 3
f 46/95/101 47/96/102 36/81/10 35/80/9
s 2
f 47/96/103 48/97/104 37/82/6 36/81/5
s 1
f 48/97/105 49/98/106 38/83/2 37/82/1
s 9
f 39/85/51 38/84/50 49/99/107 50/100/108
s 10
f 51/101/109 52/102/110 41/87/90 40/86/89
s 6
f 52/103/111 53/104/112 42/89/92 41/88/91
s 5
f 53/104/113 54/105/114 43/90/94 42/89/93
s 4
f 54/105/115 55/106/116 44/91/96 43/90/95
s 7
f 55/107/117 56/108/118 45/93/98 44/92/97
s 8
f 46/94/100 45/93/99 56/108/119 57/109/120
s 3
f 57/110/121 58/111/122 47/96/102 46/95/101
s 2
f 58/111/123 59/112/124 48/97/104 47/96/103
s 1
f 59/112/125 60/113/126 49/98/106 48/97/105
s 9
f 50/100/108 49/99/107 60/114/127 61/115/128
s 10
f 15/43/129 52/102/110 51/101/109 23/46/130
s 6
f 13/18/131 53/104/112 52/103/111 15/20/132
s 5
f 11/16/133 54/105/114 53/104/113 13/18/134
s 4
f 9/13/135 55/106/116 54/105/115 11/16/136
s 7
f 9/25/137 17/29/138 56/108/118 55/107/117
s 8
f 57/109/120 56/108/119 17/29/139 7/28/140
s 3
f 5/5/141 58/111/122 57/110/121 7/7/142
s 2
f 3/3/143 59/112/124 58/111/123 5/5/144
s 1
f 1/1/145 60/113/126 59/112/125 3/3/146
s 9
f 61/115/128 60/114/127 1/32/147 19/33/148
