# This file uses centimeters as units for non-parametric coordinates.

mtllib AlleyFloor.mtl
g default
v -29.125460 -0.500002 12.239152
v -29.125460 -0.500002 -45.549744
v 28.663429 -0.500002 12.239152
v 28.663429 -0.500002 -45.549744
vt 0.375000 0.000000
vt 0.375000 0.250000
vt 0.437500 0.000000
vt 0.437500 0.250000
vn 0.000000 1.000000 0.000000
vn 0.000000 1.000000 0.000000
vn 0.000000 1.000000 0.000000
vn 0.000000 1.000000 0.000000
s off
g AlleyFloor
usemtl initialShadingGroup
f 1/1/1 3/3/2 4/4/3 2/2/4
