# This file uses centimeters as units for non-parametric coordinates.

mtllib RoofTopWall.mtl
g default
v -29.125460 -0.500000 12.239150
v -29.125460 32.146503 12.239150
v 28.663435 -0.500000 12.239150
v 28.663435 32.146503 12.239150
v -29.125460 31.290958 12.239150
v 28.663435 31.290958 12.239150
v -29.125460 0.479400 12.239150
v 28.663435 0.479400 12.239150
v -29.125460 -0.500000 12.755324
v 28.663435 -0.500000 12.755324
v 28.663435 0.479400 12.755324
v -29.125460 0.479400 12.755324
v -29.125460 31.290958 13.296309
v 28.663435 31.290958 13.296309
v 28.663435 32.146503 13.296309
v -29.125460 32.146503 13.296309
v -0.230985 -0.500000 12.239150
v -0.230985 -0.500000 12.755324
v -0.230985 0.479400 12.755324
v -0.230985 0.479400 12.239150
v -0.230985 31.290958 12.239150
v -0.230985 31.290958 13.296309
v -0.230985 32.146503 13.296309
v -0.230985 32.146503 12.239150
v -7.846770 -0.500000 12.239150
v -7.846770 -0.500000 12.755324
v -7.846770 0.479400 12.755324
v -7.846770 0.479400 12.239150
v -7.846770 31.290958 12.239150
v -7.846770 31.290958 13.296309
v -7.846770 32.146503 13.296309
v -7.846770 32.146503 12.239150
v 7.384800 -0.500000 12.239150
v 7.384800 -0.500000 12.755324
v 7.384800 0.479400 12.755324
v 7.384800 0.479400 12.239150
v 7.384800 31.290958 12.239150
v 7.384800 31.290958 13.296309
v 7.384800 32.146503 13.296309
v 7.384800 32.146503 12.239150
v -23.475735 -0.500000 12.239150
v -23.475735 -0.500000 12.755324
v -23.475735 0.479400 12.755324
v -23.475735 0.479400 12.239150
v -23.475735 31.290958 12.239150
v -23.475735 31.290958 13.296309
v -23.475735 32.146503 13.296309
v -23.475735 32.146503 12.239150
v 23.013765 -0.500000 12.239150
v 23.013765 -0.500000 12.755324
v 23.013765 0.479400 12.755324
v 23.013765 0.479400 12.239150
v 23.013765 31.290958 12.239150
v 23.013765 31.290958 13.296309
v 23.013765 32.146503 13.296309
v 23.013765 32.146503 12.239150
v 28.663435 19.172184 12.239150
v 23.013765 19.172184 12.239150
v 7.384800 19.172184 12.239150
v -0.230985 19.172184 12.239150
v -7.846770 19.172184 12.239150
v -23.475735 19.172184 12.239150
v -29.125460 19.172184 12.239150
v -29.125460 32.146503 6.589477
v -23.475735 32.146503 6.589461
v -0.230985 32.146503 6.589461
v 7.384800 32.146503 6.589461
v -7.846770 32.146503 6.589461
v 23.013765 32.146503 6.589461
v 28.663435 32.146503 6.589477
v 23.013765 19.172184 6.589461
v 23.013765 31.290958 6.589461
v 7.384800 19.172184 6.589461
v 7.384800 31.290958 6.589461
v -7.846770 19.172184 6.589461
v -7.846770 31.290958 6.589461
v -23.475735 19.172184 6.589461
v -23.475735 31.290958 6.589461
v -0.230985 19.172184 6.589461
v -29.125460 19.172184 6.589461
v 28.663450 19.172184 6.589461
v 23.013765 0.479400 6.589461
v 7.384800 0.479400 6.589461
v -7.846770 0.479400 6.589461
v -23.475735 0.479400 6.589461
v -0.230985 0.479400 6.589461
v -29.125460 0.479400 6.589461
v 28.663450 0.479400 6.589461
vt 0.061990 0.881027
vt 0.061990 0.894266
vt 0.055013 0.894266
vt 0.055013 0.881027
vt 0.069154 0.894266
vt 0.069154 0.881027
vt 0.076132 0.881027
vt 0.076132 0.894266
vt 0.019660 0.866738
vt 0.031224 0.866738
vt 0.031224 0.881027
vt 0.019660 0.881027
vt 0.048901 0.881027
vt 0.037337 0.881027
vt 0.037337 0.866738
vt 0.048901 0.866738
vt 0.517445 0.950561
vt 0.531734 0.950561
vt 0.531734 0.962125
vt 0.517445 0.962125
vt 0.608102 0.950561
vt 0.608102 0.962125
vt 0.531734 0.786750
vt 0.608102 0.786750
vt 0.497590 0.950561
vt 0.511880 0.950561
vt 0.511880 0.962125
vt 0.497590 0.962125
vt 0.421223 0.962125
vt 0.421223 0.950561
vt 0.497590 0.786750
vt 0.421223 0.786750
vt 0.401369 0.950560
vt 0.415659 0.950560
vt 0.415659 0.962125
vt 0.401369 0.962125
vt 0.325001 0.962125
vt 0.325001 0.950560
vt 0.401369 0.786750
vt 0.325001 0.786750
vt 0.228780 0.950560
vt 0.243070 0.950560
vt 0.243070 0.962125
vt 0.228780 0.962125
vt 0.319437 0.950560
vt 0.319437 0.962125
vt 0.243070 0.786750
vt 0.319437 0.786750
vt 0.443897 0.783130
vt 0.443897 0.706762
vt 0.450874 0.706762
vt 0.450874 0.783130
vt 0.443897 0.495504
vt 0.450874 0.495504
vt 0.443897 0.392561
vt 0.450874 0.392561
vt 0.443897 0.289617
vt 0.450874 0.289617
vt 0.443897 0.078359
vt 0.450874 0.078359
vt 0.443897 0.001992
vt 0.450874 0.001992
vt 0.458039 0.706762
vt 0.465016 0.706762
vt 0.465016 0.783130
vt 0.458039 0.783130
vt 0.458039 0.495504
vt 0.465016 0.495504
vt 0.458039 0.392561
vt 0.465016 0.392561
vt 0.458039 0.289617
vt 0.465016 0.289617
vt 0.458039 0.078359
vt 0.465016 0.078359
vt 0.465016 0.001992
vt 0.458039 0.001992
vt 0.027932 0.863118
vt 0.027932 0.786750
vt 0.042222 0.786750
vt 0.042222 0.863118
vt 0.223215 0.786750
vt 0.223215 0.801039
vt 0.146848 0.801039
vt 0.146848 0.786750
vt 0.223215 0.877407
vt 0.146848 0.877407
vt 0.741307 0.889693
vt 0.727017 0.889693
vt 0.727017 0.786750
vt 0.741307 0.786750
vt 0.741307 0.992637
vt 0.727017 0.992637
vt 0.613666 0.786750
vt 0.627956 0.786750
vt 0.627956 0.889693
vt 0.613666 0.889693
vt 0.704323 0.786750
vt 0.704323 0.889693
vt 0.627956 0.992636
vt 0.613666 0.992636
vt 0.704323 0.992636
vt 0.022368 0.863117
vt 0.008078 0.863117
vt 0.008078 0.786750
vt 0.022368 0.786750
vt 0.141283 0.801039
vt 0.064916 0.801039
vt 0.064916 0.786750
vt 0.141283 0.786750
vt 0.141283 0.877407
vt 0.064916 0.877407
vt 0.828803 0.998008
vt 0.828803 0.786750
vt 0.905171 0.786750
vt 0.905171 0.998008
vt 0.746871 0.998008
vt 0.746871 0.786750
vt 0.823239 0.786750
vt 0.823239 0.998008
vt 0.047787 0.863118
vt 0.047787 0.786750
vt 0.059351 0.786750
vt 0.059351 0.863118
vt 0.001807 0.783130
vt 0.001807 0.706762
vt 0.254479 0.706762
vt 0.254479 0.783130
vt 0.254479 0.495504
vt 0.001807 0.495504
vt 0.418289 0.706762
vt 0.418289 0.783130
vt 0.254479 0.392561
vt 0.001807 0.392561
vt 0.418289 0.495504
vt 0.418289 0.392561
vt 0.254479 0.289617
vt 0.001807 0.289617
vt 0.418289 0.289617
vt 0.254479 0.078359
vt 0.001807 0.078359
vt 0.254479 0.001992
vt 0.001807 0.001992
vt 0.418289 0.078359
vt 0.418289 0.001992
vt 0.424453 0.783130
vt 0.424453 0.706762
vt 0.437692 0.706762
vt 0.437692 0.783130
vt 0.424453 0.495504
vt 0.437692 0.495504
vt 0.424453 0.392561
vt 0.437692 0.392561
vt 0.424453 0.289617
vt 0.437692 0.289617
vt 0.424453 0.078359
vt 0.437692 0.078359
vt 0.424453 0.001992
vt 0.437692 0.001992
vt 0.721452 0.889693
vt 0.709888 0.889693
vt 0.709888 0.786750
vt 0.721452 0.786750
vt 0.721452 0.992637
vt 0.709888 0.992637
vt 0.013371 0.943104
vt 0.001807 0.943104
vt 0.001807 0.866737
vt 0.013371 0.866737
vt 0.472180 0.392561
vt 0.472180 0.289617
vt 0.647555 0.289617
vt 0.647555 0.392561
vt 0.900227 0.289617
vt 0.900227 0.392561
vt 0.472180 0.495504
vt 0.647555 0.495504
vt 0.647555 0.078359
vt 0.900227 0.078359
vt 0.900227 0.495504
vt 0.647555 0.001992
vt 0.900227 0.001992
vt 0.647555 0.706762
vt 0.900227 0.706762
vt 0.472180 0.078359
vt 0.472180 0.001992
vt 0.647555 0.783130
vt 0.900227 0.783130
vt 0.472180 0.783130
vt 0.472180 0.706762
vn 0.000000 0.000000 1.000000
vn 0.000000 0.000000 1.000000
vn 0.000000 0.000000 1.000000
vn 0.000000 0.000000 1.000000
vn 0.000000 0.000000 1.000000
vn 0.000000 0.000000 1.000000
vn 0.000000 0.000000 1.000000
vn 0.000000 0.000000 1.000000
vn 0.000000 0.000000 1.000000
vn 0.000000 0.000000 1.000000
vn 0.000000 0.000000 1.000000
vn 0.000000 0.000000 1.000000
vn 0.000000 -1.000000 0.000000
vn 0.000000 -1.000000 0.000000
vn 0.000000 -1.000000 0.000000
vn 0.000000 -1.000000 0.000000
vn 1.000000 0.000000 0.000000
vn 1.000000 0.000000 0.000000
vn 1.000000 0.000000 0.000000
vn 1.000000 0.000000 0.000000
vn 0.000000 1.000000 0.000000
vn 0.000000 1.000000 0.000000
vn 0.000000 1.000000 0.000000
vn 0.000000 1.000000 0.000000
vn -1.000000 0.000000 0.000000
vn -1.000000 0.000000 0.000000
vn -1.000000 0.000000 0.000000
vn -1.000000 0.000000 0.000000
vn 0.000000 -1.000000 0.000000
vn 0.000000 -1.000000 0.000000
vn 0.000000 -1.000000 0.000000
vn 0.000000 -1.000000 0.000000
vn 1.000000 0.000000 0.000000
vn 1.000000 0.000000 0.000000
vn 1.000000 0.000000 0.000000
vn 1.000000 0.000000 0.000000
vn 0.000000 1.000000 0.000000
vn 0.000000 1.000000 0.000000
vn 0.000000 1.000000 0.000000
vn 0.000000 1.000000 0.000000
vn -1.000000 0.000000 0.000000
vn -1.000000 0.000000 0.000000
vn -1.000000 0.000000 0.000000
vn -1.000000 0.000000 0.000000
vn 0.000000 -1.000000 0.000000
vn 0.000000 -1.000000 0.000000
vn 0.000000 -1.000000 0.000000
vn 0.000000 -1.000000 0.000000
vn 0.000000 0.000000 1.000000
vn 0.000000 0.000000 1.000000
vn 0.000000 0.000000 1.000000
vn 0.000000 0.000000 1.000000
vn 0.000000 1.000000 0.000000
vn 0.000000 1.000000 0.000000
vn 0.000000 1.000000 0.000000
vn 0.000000 1.000000 0.000000
vn 0.000000 0.000000 1.000000
vn 0.000000 0.000000 1.000000
vn 0.000000 0.000000 1.000000
vn 0.000000 0.000000 1.000000
vn 0.000000 -1.000000 0.000000
vn 0.000000 -1.000000 0.000000
vn 0.000000 -1.000000 0.000000
vn 0.000000 -1.000000 0.000000
vn 0.000000 0.000000 1.000000
vn 0.000000 0.000000 1.000000
vn 0.000000 0.000000 1.000000
vn 0.000000 0.000000 1.000000
vn 0.000000 1.000000 0.000000
vn 0.000000 1.000000 0.000000
vn 0.000000 1.000000 0.000000
vn 0.000000 1.000000 0.000000
vn 0.000000 -1.000000 0.000000
vn 0.000000 -1.000000 0.000000
vn 0.000000 -1.000000 0.000000
vn 0.000000 -1.000000 0.000000
vn 0.000000 0.000000 1.000000
vn 0.000000 0.000000 1.000000
vn 0.000000 0.000000 1.000000
vn 0.000000 0.000000 1.000000
vn 0.000000 1.000000 0.000000
vn 0.000000 1.000000 0.000000
vn 0.000000 1.000000 0.000000
vn 0.000000 1.000000 0.000000
vn 0.000000 0.000000 1.000000
vn 0.000000 0.000000 1.000000
vn 0.000000 0.000000 1.000000
vn 0.000000 0.000000 1.000000
vn 0.000000 -1.000000 0.000000
vn 0.000000 -1.000000 0.000000
vn 0.000000 -1.000000 0.000000
vn 0.000000 -1.000000 0.000000
vn 0.000000 0.000000 1.000000
vn 0.000000 0.000000 1.000000
vn 0.000000 0.000000 1.000000
vn 0.000000 0.000000 1.000000
vn 0.000000 1.000000 0.000000
vn 0.000000 1.000000 0.000000
vn 0.000000 1.000000 0.000000
vn 0.000000 1.000000 0.000000
vn 0.000000 -1.000000 0.000000
vn 0.000000 -1.000000 0.000000
vn 0.000000 -1.000000 0.000000
vn 0.000000 -1.000000 0.000000
vn 0.000000 0.000000 1.000000
vn 0.000000 0.000000 1.000000
vn 0.000000 0.000000 1.000000
vn 0.000000 0.000000 1.000000
vn 0.000000 1.000000 0.000000
vn 0.000000 1.000000 0.000000
vn 0.000000 1.000000 0.000000
vn 0.000000 1.000000 0.000000
vn 0.000000 0.000000 1.000000
vn 0.000000 0.000000 1.000000
vn 0.000000 0.000000 1.000000
vn 0.000000 0.000000 1.000000
vn 0.000000 -1.000000 0.000000
vn 0.000000 -1.000000 0.000000
vn 0.000000 -1.000000 0.000000
vn 0.000000 -1.000000 0.000000
vn 0.000000 0.000000 1.000000
vn 0.000000 0.000000 1.000000
vn 0.000000 0.000000 1.000000
vn 0.000000 0.000000 1.000000
vn 0.000000 1.000000 0.000000
vn 0.000000 1.000000 0.000000
vn 0.000000 1.000000 0.000000
vn 0.000000 1.000000 0.000000
vn 0.000000 0.000000 1.000000
vn 0.000000 0.000000 1.000000
vn 0.000000 0.000000 1.000000
vn 0.000000 0.000000 1.000000
vn 0.000000 -1.000000 0.000000
vn 0.000000 -1.000000 0.000000
vn 0.000000 -1.000000 0.000000
vn 0.000000 -1.000000 0.000000
vn 0.000000 0.000000 1.000000
vn 0.000000 0.000000 1.000000
vn 0.000000 0.000000 1.000000
vn 0.000000 0.000000 1.000000
vn 0.000000 1.000000 0.000000
vn 0.000000 1.000000 0.000000
vn 0.000000 1.000000 0.000000
vn 0.000000 1.000000 0.000000
vn 0.000000 0.000000 1.000000
vn 0.000000 0.000000 1.000000
vn 0.000000 0.000000 1.000000
vn 0.000000 0.000000 1.000000
vn 0.000000 -1.000000 0.000000
vn 0.000000 -1.000000 0.000000
vn 0.000000 -1.000000 0.000000
vn 0.000000 -1.000000 0.000000
vn 0.000000 0.000000 1.000000
vn 0.000000 0.000000 1.000000
vn 0.000000 0.000000 1.000000
vn 0.000000 0.000000 1.000000
vn 0.000000 1.000000 0.000000
vn 0.000000 1.000000 0.000000
vn 0.000000 1.000000 0.000000
vn 0.000000 1.000000 0.000000
vn 0.000000 0.000000 1.000000
vn 0.000000 0.000000 1.000000
vn 0.000000 0.000000 1.000000
vn 0.000000 0.000000 1.000000
vn 0.000000 0.000000 1.000000
vn 0.000000 0.000000 1.000000
vn 0.000000 0.000000 1.000000
vn 0.000000 0.000000 1.000000
vn 0.000000 0.000000 1.000000
vn 0.000000 0.000000 1.000000
vn 0.000000 0.000000 1.000000
vn 0.000000 0.000000 1.000000
vn 0.000000 0.000000 1.000000
vn 0.000000 0.000000 1.000000
vn 0.000000 0.000000 1.000000
vn 0.000000 0.000000 1.000000
vn 1.000000 0.000000 0.000000
vn 1.000000 0.000000 0.000000
vn 1.000000 0.000000 0.000000
vn 1.000000 0.000000 0.000000
vn -1.000000 0.000000 0.000000
vn -1.000000 0.000000 0.000000
vn -1.000000 0.000000 0.000000
vn -1.000000 0.000000 0.000000
vn -1.000000 0.000000 0.000000
vn -1.000000 0.000000 0.000000
vn -1.000000 0.000000 0.000000
vn -1.000000 0.000000 0.000000
vn 1.000000 0.000000 0.000000
vn 1.000000 0.000000 0.000000
vn 1.000000 0.000000 0.000000
vn 1.000000 0.000000 0.000000
vn 0.000000 1.000000 0.000000
vn 0.000000 1.000000 0.000000
vn 0.000000 1.000000 0.000000
vn 0.000000 1.000000 0.000000
vn 0.000000 1.000000 0.000000
vn 0.000000 1.000000 0.000000
vn 0.000000 1.000000 0.000000
vn 0.000000 1.000000 0.000000
vn 0.000000 1.000000 0.000000
vn 0.000000 1.000000 0.000000
vn 0.000000 1.000000 0.000000
vn 0.000000 1.000000 0.000000
vn 0.000000 1.000000 0.000000
vn 0.000000 1.000000 0.000000
vn 0.000000 1.000000 0.000000
vn 0.000000 1.000000 0.000000
vn -1.000000 0.000000 0.000000
vn -1.000000 0.000000 0.000000
vn -1.000000 0.000000 0.000000
vn -1.000000 0.000000 0.000000
vn 1.000000 0.000000 0.000000
vn 1.000000 0.000000 0.000000
vn 1.000000 0.000000 0.000000
vn 1.000000 0.000000 0.000000
vn -1.000000 0.000000 0.000000
vn -1.000000 0.000000 0.000000
vn -1.000000 0.000000 0.000000
vn -1.000000 0.000000 0.000000
vn 1.000000 0.000000 0.000000
vn 1.000000 0.000000 0.000000
vn 1.000000 0.000000 0.000000
vn 1.000000 0.000000 0.000000
vn 0.000000 1.000000 0.000000
vn 0.000000 1.000000 0.000000
vn 0.000000 1.000000 0.000000
vn 0.000000 1.000000 0.000000
vn 0.000000 1.000000 0.000000
vn 0.000000 1.000000 0.000000
vn 0.000000 1.000000 0.000000
vn 0.000000 1.000000 0.000000
vn 1.000000 0.000000 0.000000
vn 1.000000 0.000000 0.000000
vn 1.000000 0.000000 0.000000
vn 1.000000 0.000000 0.000000
vn -1.000000 0.000000 0.000000
vn -1.000000 0.000000 0.000000
vn -1.000000 0.000000 0.000000
vn -1.000000 0.000000 0.000000
vn -1.000000 0.000000 0.000000
vn -1.000000 0.000000 0.000000
vn -1.000000 0.000000 0.000000
vn -1.000000 0.000000 0.000000
vn 1.000000 0.000000 0.000000
vn 1.000000 0.000000 0.000000
vn 1.000000 0.000000 0.000000
vn 1.000000 0.000000 0.000000
vn 0.000000 0.000000 -1.000000
vn 0.000000 0.000000 -1.000000
vn 0.000000 0.000000 -1.000000
vn 0.000000 0.000000 -1.000000
vn 0.000000 0.000000 -1.000000
vn 0.000000 0.000000 -1.000000
vn 0.000000 0.000000 -1.000000
vn 0.000000 0.000000 -1.000000
vn -0.000001 0.000001 -1.000000
vn -0.000001 0.000001 -1.000000
vn -0.000001 0.000001 -1.000000
vn -0.000001 0.000001 -1.000000
vn 0.000001 0.000001 -1.000000
vn 0.000001 0.000001 -1.000000
vn 0.000001 0.000001 -1.000000
vn 0.000001 0.000001 -1.000000
vn 0.000000 0.000000 -1.000000
vn 0.000000 0.000000 -1.000000
vn 0.000000 0.000000 -1.000000
vn 0.000000 0.000000 -1.000000
vn 0.000000 0.000000 -1.000000
vn 0.000000 0.000000 -1.000000
vn 0.000000 0.000000 -1.000000
vn 0.000000 0.000000 -1.000000
vn 0.000000 0.000000 -1.000000
vn 0.000000 0.000000 -1.000000
vn 0.000000 0.000000 -1.000000
vn 0.000000 0.000000 -1.000000
vn 0.000000 0.000000 -1.000000
vn 0.000000 0.000000 -1.000000
vn 0.000000 0.000000 -1.000000
vn 0.000000 0.000000 -1.000000
vn 0.000000 0.000000 -1.000000
vn 0.000000 0.000000 -1.000000
vn 0.000000 0.000000 -1.000000
vn 0.000000 0.000000 -1.000000
vn 0.000000 0.000000 -1.000000
vn 0.000000 0.000000 -1.000000
vn 0.000000 0.000000 -1.000000
vn 0.000000 0.000000 -1.000000
s off
g RoofTopWall
usemtl initialShadingGroup
f 13/120/1 46/121/2 47/122/3 16/123/4
f 7/124/5 44/125/6 62/126/7 63/127/8
f 9/145/9 42/146/10 43/147/11 12/148/12
f 1/49/13 41/50/14 42/51/15 9/52/16
f 3/1/17 8/2/18 11/3/19 10/4/20
f 43/63/21 44/64/22 7/65/23 12/66/24
f 7/5/25 1/6/26 9/7/27 12/8/28
f 5/77/29 45/78/30 46/79/31 13/80/32
f 6/9/33 4/10/34 15/11/35 14/12/36
f 47/81/37 48/82/38 2/83/39 16/84/40
f 2/13/41 5/14/42 13/15/43 16/16/44
f 18/56/45 17/55/46 33/57/47 34/58/48
f 19/152/49 18/151/50 34/153/51 35/154/52
f 35/71/53 36/72/54 20/70/55 19/69/56
f 59/136/57 60/132/58 20/133/59 36/137/60
f 22/87/61 21/88/62 37/89/63 38/90/64
f 23/159/65 22/160/66 38/161/67 39/162/68
f 39/93/69 40/94/70 24/95/71 23/96/72
f 26/54/73 25/53/74 17/55/75 18/56/76
f 27/150/77 26/149/78 18/151/79 19/152/80
f 19/69/81 20/70/82 28/68/83 27/67/84
f 60/132/85 61/128/86 28/129/87 20/133/88
f 30/91/89 29/92/90 21/88/91 22/87/92
f 31/163/93 30/164/94 22/160/95 23/159/96
f 23/96/97 24/95/98 32/99/99 31/100/100
f 34/58/101 33/57/102 49/59/103 50/60/104
f 35/154/105 34/153/106 50/155/107 51/156/108
f 51/73/109 52/74/110 36/72/111 35/71/112
f 58/139/113 59/136/114 36/137/115 52/140/116
f 42/51/117 41/50/118 25/53/119 26/54/120
f 43/147/121 42/146/122 26/149/123 27/150/124
f 27/67/125 28/68/126 44/64/127 43/63/128
f 61/128/129 62/126/130 44/125/131 28/129/132
f 50/60/133 49/59/134 3/61/135 10/62/136
f 51/156/137 50/155/138 10/157/139 11/158/140
f 8/75/141 52/74/142 51/73/143 11/76/144
f 57/141/145 58/139/146 52/140/147 8/142/148
f 54/102/149 53/103/150 6/104/151 14/105/152
f 55/165/153 54/166/154 14/167/155 15/168/156
f 4/106/157 56/107/158 55/108/159 15/109/160
f 53/143/161 58/139/162 57/141/163 6/144/164
f 21/135/165 60/132/166 59/136/167 37/138/168
f 29/134/169 61/128/170 60/132/171 21/135/172
f 63/127/173 62/126/174 45/130/175 5/131/176
f 38/17/177 37/18/178 40/19/179 39/20/180
f 29/25/181 30/26/182 31/27/183 32/28/184
f 53/33/185 54/34/186 55/35/187 56/36/188
f 46/41/189 45/42/190 48/43/191 47/44/192
f 2/83/193 48/82/194 65/85/195 64/86/196
f 24/95/197 40/94/198 67/97/199 66/98/200
f 32/99/201 24/95/202 66/98/203 68/101/204
f 56/107/205 4/106/206 70/110/207 69/111/208
f 58/39/209 53/33/210 72/38/211 71/40/212
f 37/18/213 59/23/214 73/24/215 74/21/216
f 61/31/217 29/25/218 76/30/219 75/32/220
f 45/42/221 62/47/222 77/48/223 78/45/224
f 59/112/225 58/113/226 71/114/227 73/115/228
f 62/116/229 61/117/230 75/118/231 77/119/232
f 40/19/233 37/18/234 74/21/235 67/22/236
f 29/25/237 32/28/238 68/29/239 76/30/240
f 53/33/241 56/36/242 69/37/243 72/38/244
f 48/43/245 45/42/246 78/45/247 65/46/248
f 66/169/249 67/170/250 73/171/251 79/172/252
f 68/175/253 66/169/254 79/172/255 75/176/256
f 64/188/257 65/189/258 77/182/259 80/186/260
f 69/184/261 70/185/262 81/180/263 71/177/264
f 73/171/265 71/177/266 82/178/267 83/173/268
f 77/182/269 75/176/270 84/179/271 85/183/272
f 79/172/273 73/171/274 83/173/275 86/174/276
f 75/176/277 79/172/278 86/174/279 84/179/280
f 80/186/281 77/182/282 85/183/283 87/187/284
f 71/177/285 81/180/286 88/181/287 82/178/288
