# This file uses centimeters as units for non-parametric coordinates.

mtllib SingleWindow.mtl
g default
v -29.125454 -0.499997 12.239150
v -29.125454 32.146473 12.239150
v 28.663433 -0.499997 12.239150
v 28.663433 32.146473 12.239150
v -29.125454 31.290953 12.239150
v 28.663433 31.290947 12.239150
v -29.125454 0.479398 12.239150
v 28.663433 0.479389 12.239150
v -29.125454 -0.499997 12.755324
v 28.663433 -0.499997 12.755324
v 28.663433 0.479389 12.755324
v -29.125454 0.479398 12.755324
v -29.125454 31.290953 13.296309
v 28.663433 31.290947 13.296309
v 28.663433 32.146473 13.296309
v -29.125454 32.146473 13.296309
v -0.231006 -0.499997 12.239150
v -0.231006 -0.499997 12.755324
v -0.231006 0.479392 12.755324
v -0.231006 0.479392 12.239150
v -0.231006 31.290953 12.239150
v -0.231006 31.290953 13.296309
v -0.231006 32.146473 13.296309
v -0.231006 32.146473 12.239150
v 6.920873 -0.499997 12.239150
v 6.920873 -0.499997 12.755324
v 6.920873 0.479389 12.755324
v 6.920873 0.479389 12.239150
v 6.920873 31.290953 12.239150
v 6.920873 31.290953 13.296309
v 6.920873 32.146473 13.296309
v 6.920873 32.146473 12.239150
v -7.382870 -0.499997 12.239150
v -7.382870 -0.499997 12.755324
v -7.382870 0.479398 12.755324
v -7.382870 0.479398 12.239150
v -7.382870 31.290953 12.239150
v -7.382870 31.290953 13.296309
v -7.382870 32.146473 13.296309
v -7.382870 32.146473 12.239150
v 28.663433 24.545671 12.239150
v 6.920873 24.545671 12.239150
v -0.231006 24.545671 12.239150
v -7.382870 24.545677 12.239150
v -29.125454 24.545677 12.239150
v -29.125454 9.455751 12.239150
v -7.382870 9.455751 12.239150
v -0.231006 9.455749 12.239150
v 6.920873 9.455749 12.239150
v 28.663433 9.455746 12.239150
v 6.920873 24.545671 10.346358
v -0.231006 24.545671 10.346358
v -0.231006 9.455749 10.346358
v 6.920873 9.455749 10.346358
v -7.382870 24.545677 10.346358
v -7.382870 9.455751 10.346358
v 28.663433 25.055790 12.239150
v 6.920873 25.055796 12.239150
v -0.231006 25.055796 12.239150
v -7.382870 25.055796 12.239150
v -29.125454 25.055796 12.239150
v -29.125454 8.981130 12.239150
v -7.382870 8.981130 12.239150
v -0.231006 8.981130 12.239150
v 6.920873 8.981130 12.239150
v 28.663433 8.981124 12.239150
v -7.961045 -0.499997 12.239150
v -7.961045 -0.499997 12.755324
v -7.961045 0.479398 12.755324
v -7.961045 0.479398 12.239150
v -7.961045 8.981130 12.239150
v -7.961045 9.455751 12.239150
v -7.961045 24.545677 12.239150
v -7.961045 25.055796 12.239150
v -7.961045 31.290953 12.239150
v -7.961045 31.290953 13.296309
v -7.961045 32.146473 13.296309
v -7.961045 32.146473 12.239150
v 7.502222 -0.499997 12.239150
v 7.502222 -0.499997 12.755324
v 7.502222 0.479389 12.755324
v 7.502222 0.479389 12.239150
v 7.502222 8.981130 12.239150
v 7.502222 9.455749 12.239150
v 7.502208 24.545671 12.239150
v 7.502208 25.055796 12.239150
v 7.502222 31.290953 12.239150
v 7.502222 31.290953 13.296309
v 7.502222 32.146473 13.296309
v 7.502222 32.146473 12.239150
v 7.502222 9.455749 12.568740
v 7.502208 24.545671 12.568740
v 6.920873 24.545671 12.568740
v 6.920873 9.455749 12.568740
v 7.502208 25.055796 12.568740
v 6.920873 25.055796 12.568740
v -0.231006 25.055796 12.568740
v -0.231006 24.545671 12.568740
v -7.382870 25.055796 12.568740
v -7.382870 24.545677 12.568740
v -7.382870 9.455751 12.568740
v -0.231006 9.455749 12.568740
v -7.382870 8.981130 12.568740
v -0.231006 8.981130 12.568740
v 6.920873 8.981130 12.568740
v 7.502222 8.981130 12.568740
v -7.961045 8.981130 12.568740
v -7.961045 9.455751 12.568740
v -7.961045 24.545677 12.568740
v -7.961045 25.055796 12.568740
vt 0.265413 0.813675
vt 0.280018 0.813675
vt 0.280018 0.861215
vt 0.265413 0.861215
vt 0.300854 0.861215
vt 0.286248 0.861215
vt 0.286248 0.813675
vt 0.300854 0.813675
vt 0.227530 0.813674
vt 0.240288 0.813674
vt 0.240288 0.911040
vt 0.227530 0.911040
vt 0.259229 0.911040
vt 0.246471 0.911040
vt 0.246471 0.813674
vt 0.259229 0.813674
vt 0.556842 0.584763
vt 0.556842 0.809796
vt 0.382515 0.809796
vt 0.382515 0.584763
vt 0.587198 0.584763
vt 0.587198 0.809796
vt 0.202224 0.809795
vt 0.202224 0.584762
vt 0.376552 0.584762
vt 0.376552 0.809795
vt 0.171869 0.809795
vt 0.171869 0.584762
vt 0.809083 0.591841
vt 0.809083 0.816874
vt 0.778727 0.816874
vt 0.778727 0.591841
vt 0.809083 0.824481
vt 0.778727 0.824481
vt 0.809083 0.584763
vt 0.778727 0.584763
vt 0.742409 0.591841
vt 0.742409 0.584763
vt 0.772764 0.584763
vt 0.772764 0.591841
vt 0.742409 0.816874
vt 0.772764 0.816874
vt 0.742409 0.824481
vt 0.772764 0.824481
vt 0.507864 0.580883
vt 0.507864 0.368872
vt 0.555404 0.368872
vt 0.555404 0.580883
vt 0.507864 0.363080
vt 0.555404 0.363080
vt 0.507864 0.291437
vt 0.555404 0.291437
vt 0.507864 0.219795
vt 0.555404 0.219795
vt 0.507864 0.213971
vt 0.555404 0.213971
vt 0.507864 0.001992
vt 0.555404 0.001992
vt 0.562795 0.368872
vt 0.610335 0.368872
vt 0.610335 0.580883
vt 0.562795 0.580883
vt 0.562795 0.363080
vt 0.610335 0.363080
vt 0.562795 0.291438
vt 0.610335 0.291438
vt 0.562795 0.219795
vt 0.610335 0.219795
vt 0.562795 0.213971
vt 0.610335 0.213971
vt 0.610335 0.001992
vt 0.562795 0.001992
vt 0.617725 0.580883
vt 0.617725 0.368872
vt 0.715090 0.368872
vt 0.715090 0.580883
vt 0.617725 0.363080
vt 0.715090 0.363080
vt 0.617725 0.291438
vt 0.715090 0.291438
vt 0.617725 0.219795
vt 0.715090 0.219795
vt 0.617725 0.213971
vt 0.715090 0.213971
vt 0.617725 0.001992
vt 0.715090 0.001992
vt 0.721904 0.368872
vt 0.819269 0.368872
vt 0.819269 0.580883
vt 0.721904 0.580883
vt 0.721904 0.363080
vt 0.819269 0.363080
vt 0.721904 0.291438
vt 0.819269 0.291438
vt 0.721904 0.219795
vt 0.819269 0.219795
vt 0.721904 0.213971
vt 0.819269 0.213971
vt 0.819269 0.001992
vt 0.721904 0.001992
vt 0.165906 0.759090
vt 0.094263 0.759090
vt 0.094263 0.584762
vt 0.165906 0.584762
vt 0.165906 0.789445
vt 0.094263 0.789445
vt 0.022620 0.759090
vt 0.022620 0.584762
vt 0.022620 0.789445
vt 0.073579 0.823681
vt 0.145221 0.823681
vt 0.145221 0.998008
vt 0.073579 0.998008
vt 0.073579 0.793325
vt 0.145221 0.793325
vt 0.001936 0.823681
vt 0.001936 0.998008
vt 0.001936 0.793325
vt 0.182119 0.813675
vt 0.182119 0.819498
vt 0.151764 0.819498
vt 0.151764 0.813675
vt 0.182119 0.891141
vt 0.151764 0.891141
vt 0.182119 0.962784
vt 0.151764 0.962784
vt 0.182119 0.968575
vt 0.151764 0.968575
vt 0.189647 0.962783
vt 0.189647 0.891141
vt 0.220002 0.891141
vt 0.220002 0.962783
vt 0.189647 0.819498
vt 0.220002 0.819498
vt 0.189647 0.968575
vt 0.220002 0.968575
vt 0.189647 0.813674
vt 0.220002 0.813674
vt 0.001936 0.580883
vt 0.001936 0.368872
vt 0.014694 0.368872
vt 0.014694 0.580883
vt 0.001936 0.363080
vt 0.014694 0.363080
vt 0.001936 0.291438
vt 0.014694 0.291438
vt 0.001936 0.219795
vt 0.014694 0.219795
vt 0.001936 0.213971
vt 0.014694 0.213971
vt 0.001936 0.001992
vt 0.014694 0.001992
vt 0.154930 0.580883
vt 0.154930 0.368872
vt 0.379963 0.368872
vt 0.379963 0.580883
vt 0.147852 0.580883
vt 0.147852 0.368872
vt 0.387570 0.368872
vt 0.387570 0.580883
vt 0.021067 0.580883
vt 0.021067 0.368872
vt 0.480553 0.368872
vt 0.480553 0.580883
vt 0.021067 0.363080
vt 0.147852 0.363080
vt 0.387570 0.363080
vt 0.480553 0.363080
vt 0.147852 0.291438
vt 0.021067 0.291438
vt 0.387570 0.291438
vt 0.480553 0.291438
vt 0.147852 0.219795
vt 0.021067 0.219795
vt 0.387570 0.219795
vt 0.480553 0.219795
vt 0.021067 0.213971
vt 0.147852 0.213971
vt 0.387570 0.213971
vt 0.480553 0.213971
vt 0.147852 0.001992
vt 0.021067 0.001992
vt 0.387570 0.001992
vt 0.480553 0.001992
vt 0.154930 0.001992
vt 0.154930 0.213971
vt 0.379963 0.213971
vt 0.379963 0.001992
vt 0.487029 0.580883
vt 0.487029 0.368872
vt 0.501634 0.368872
vt 0.501634 0.580883
vt 0.487029 0.363080
vt 0.501634 0.363080
vt 0.487029 0.291438
vt 0.501634 0.291438
vt 0.487029 0.219795
vt 0.501634 0.219795
vt 0.487029 0.213971
vt 0.501634 0.213971
vt 0.487029 0.001992
vt 0.501634 0.001992
vt 0.736446 0.809796
vt 0.664803 0.809796
vt 0.664803 0.584763
vt 0.736446 0.584763
vt 0.593160 0.809796
vt 0.593160 0.584763
vt 0.969947 0.591841
vt 0.969946 0.816874
vt 0.964123 0.816874
vt 0.964123 0.591841
vt 0.969946 0.824481
vt 0.964123 0.824481
vt 0.969947 0.584763
vt 0.964123 0.584763
vt 0.892480 0.824481
vt 0.892480 0.816874
vt 0.892480 0.591841
vt 0.892480 0.584763
vt 0.820837 0.824481
vt 0.820837 0.816874
vt 0.820837 0.591841
vt 0.820837 0.584763
vt 0.815046 0.824481
vt 0.815046 0.816874
vt 0.815046 0.591841
vt 0.815046 0.584763
vn 0.000000 0.000000 1.000000
vn 0.000000 0.000000 1.000000
vn 0.000000 0.000000 1.000000
vn 0.000000 0.000000 1.000000
vn 0.000000 0.000000 1.000000
vn 0.000000 0.000000 1.000000
vn 0.000000 0.000000 1.000000
vn 0.000000 0.000000 1.000000
vn 0.000000 0.000000 1.000000
vn 0.000000 0.000000 1.000000
vn 0.000000 0.000000 1.000000
vn 0.000000 0.000000 1.000000
vn 0.000000 -1.000000 0.000000
vn 0.000000 -1.000000 0.000000
vn 0.000000 -1.000000 0.000000
vn 0.000000 -1.000000 0.000000
vn 1.000000 0.000000 0.000000
vn 1.000000 0.000000 0.000000
vn 1.000000 0.000000 0.000000
vn 1.000000 0.000000 0.000000
vn 0.000000 1.000000 0.000000
vn 0.000000 1.000000 0.000000
vn 0.000000 1.000000 0.000000
vn 0.000000 1.000000 0.000000
vn -1.000000 0.000000 0.000000
vn -1.000000 0.000000 0.000000
vn -1.000000 0.000000 0.000000
vn -1.000000 0.000000 0.000000
vn 0.000000 -1.000000 0.000000
vn 0.000000 -1.000000 0.000000
vn 0.000000 -1.000000 0.000000
vn 0.000000 -1.000000 0.000000
vn 1.000000 0.000000 0.000000
vn 1.000000 0.000000 0.000000
vn 1.000000 0.000000 0.000000
vn 1.000000 0.000000 0.000000
vn 0.000000 1.000000 0.000000
vn 0.000000 1.000000 0.000000
vn 0.000000 1.000000 0.000000
vn 0.000000 1.000000 0.000000
vn -1.000000 0.000000 0.000000
vn -1.000000 0.000000 0.000000
vn -1.000000 0.000000 0.000000
vn -1.000000 0.000000 0.000000
vn 0.000000 -1.000000 0.000000
vn 0.000000 -1.000000 0.000000
vn 0.000000 -1.000000 0.000000
vn 0.000000 -1.000000 0.000000
vn 0.000000 0.000000 1.000000
vn 0.000000 0.000000 1.000000
vn 0.000000 0.000000 1.000000
vn 0.000000 0.000000 1.000000
vn 0.000000 1.000000 0.000000
vn 0.000000 1.000000 0.000000
vn 0.000001 1.000000 0.000000
vn 0.000001 1.000000 0.000000
vn 0.000000 0.000000 1.000000
vn 0.000000 0.000000 1.000000
vn 0.000000 0.000000 1.000000
vn 0.000000 0.000000 1.000000
vn 0.000000 -1.000000 0.000000
vn 0.000000 -1.000000 0.000000
vn 0.000000 -1.000000 0.000000
vn 0.000000 -1.000000 0.000000
vn 0.000000 0.000000 1.000000
vn 0.000000 0.000000 1.000000
vn 0.000000 0.000000 1.000000
vn 0.000000 0.000000 1.000000
vn 0.000000 1.000000 0.000000
vn 0.000000 1.000000 0.000000
vn 0.000000 1.000000 0.000000
vn 0.000000 1.000000 0.000000
vn 0.000000 -1.000000 0.000000
vn 0.000000 -1.000000 0.000000
vn 0.000000 0.000000 1.000000
vn 0.000000 0.000000 1.000000
vn 0.000000 1.000000 0.000000
vn 0.000000 1.000000 0.000000
vn 0.000000 0.000000 1.000000
vn 0.000000 0.000000 1.000000
vn 0.000000 0.000000 1.000000
vn 0.000000 0.000000 1.000000
vn -0.000000 -1.000000 0.000000
vn -0.000000 -1.000000 0.000000
vn 0.000000 0.000000 1.000000
vn 0.000000 0.000000 1.000000
vn 0.000000 1.000000 0.000000
vn 0.000000 1.000000 0.000000
vn 0.000000 -1.000000 0.000000
vn 0.000000 -1.000000 0.000000
vn -0.000000 0.000000 1.000000
vn -0.000000 0.000000 1.000000
vn 0.000001 1.000000 0.000000
vn 0.000001 1.000000 0.000000
vn 0.000000 0.000000 1.000000
vn 0.000000 0.000000 1.000000
vn 0.000000 -1.000000 0.000000
vn 0.000000 -1.000000 0.000000
vn 0.000000 0.000000 1.000000
vn 0.000000 0.000000 1.000000
vn 0.000000 1.000000 0.000000
vn 0.000000 1.000000 0.000000
vn 0.000000 0.000000 1.000000
vn 0.000000 0.000000 1.000000
vn 0.000000 0.000000 1.000000
vn 0.000000 0.000000 1.000000
vn 0.000000 0.000000 1.000000
vn 0.000000 0.000000 1.000000
vn 0.000000 0.000000 1.000000
vn 0.000000 0.000000 1.000000
vn 0.000000 0.000000 1.000000
vn 0.000000 0.000000 1.000000
vn 0.000000 0.000000 1.000000
vn 0.000000 0.000000 1.000000
vn 0.000000 0.000000 1.000000
vn 0.000000 0.000000 1.000000
vn 0.000000 0.000000 1.000000
vn 0.000000 0.000000 1.000000
vn 0.000000 -1.000000 0.000000
vn -0.000000 -1.000000 0.000000
vn -0.000000 -1.000000 0.000000
vn 0.000000 -1.000000 0.000000
vn 0.000000 1.000000 0.000000
vn 0.000000 1.000000 0.000000
vn 0.000000 1.000000 0.000000
vn 0.000000 1.000000 0.000000
vn -1.000000 0.000000 0.000000
vn -1.000000 0.000000 0.000000
vn -1.000000 0.000000 0.000000
vn -1.000000 0.000000 0.000000
vn -0.000001 -1.000000 0.000000
vn -0.000001 -1.000000 0.000000
vn 1.000000 0.000000 0.000000
vn 1.000000 0.000000 0.000000
vn 1.000000 0.000000 0.000000
vn 1.000000 0.000000 0.000000
vn 0.000000 1.000000 0.000000
vn 0.000000 1.000000 0.000000
vn 0.000000 0.000000 1.000000
vn 0.000000 0.000000 1.000000
vn -0.000000 0.000000 1.000000
vn -0.000000 0.000000 1.000000
vn 0.000000 0.000000 1.000000
vn 0.000000 0.000000 1.000000
vn 0.000000 0.000000 1.000000
vn 0.000000 0.000000 1.000000
vn 0.000000 0.000000 1.000000
vn 0.000000 0.000000 1.000000
vn 0.000000 0.000000 1.000000
vn 0.000000 0.000000 1.000000
vn -0.000000 0.000000 1.000000
vn 0.000000 0.000000 1.000000
vn 0.000000 0.000000 1.000000
vn -0.000000 0.000000 1.000000
vn -0.000000 0.000000 1.000000
vn -0.000000 0.000000 1.000000
vn 0.000000 0.000000 1.000000
vn 0.000000 0.000000 1.000000
vn 0.000000 0.000000 1.000000
vn 0.000000 0.000000 1.000000
vn 0.000000 0.000000 1.000000
vn 0.000000 0.000000 1.000000
vn 0.000000 -1.000000 0.000000
vn 0.000000 -1.000000 0.000000
vn 0.000000 0.000000 1.000000
vn 0.000000 0.000000 1.000000
vn 0.000000 1.000000 0.000000
vn 0.000000 1.000000 0.000000
vn 0.000000 0.000000 1.000000
vn 0.000000 0.000000 1.000000
vn 0.000000 0.000000 1.000000
vn 0.000000 0.000000 1.000000
vn 0.000000 0.000000 1.000000
vn 0.000000 0.000000 1.000000
vn -0.000000 0.000000 1.000000
vn -0.000000 0.000000 1.000000
vn -0.000000 -1.000000 0.000000
vn -0.000000 -1.000000 0.000000
vn 0.000000 0.000000 1.000000
vn 0.000000 0.000000 1.000000
vn 0.000000 1.000000 0.000000
vn 0.000000 1.000000 0.000000
vn 1.000000 0.000001 0.000000
vn 1.000000 0.000001 0.000000
vn 1.000000 0.000001 0.000000
vn 1.000000 0.000001 0.000000
vn -1.000000 0.000000 0.000000
vn -1.000000 0.000000 0.000000
vn 1.000000 0.000000 0.000000
vn 1.000000 0.000000 0.000000
vn 0.000000 1.000000 0.000000
vn 0.000000 1.000000 0.000000
vn 0.000000 1.000000 0.000000
vn 0.000000 1.000000 0.000000
vn 0.000000 1.000000 0.000000
vn 0.000000 1.000000 0.000000
vn 0.000000 -1.000000 0.000000
vn -0.000000 -1.000000 0.000000
vn 0.000000 1.000000 0.000000
vn 0.000000 1.000000 0.000000
vn -0.000001 -1.000000 0.000000
vn 0.000000 1.000000 0.000000
vn 0.000000 1.000000 0.000000
vn 0.000000 -1.000000 0.000000
vn 0.000000 -1.000000 0.000000
vn 0.000000 -1.000000 0.000000
vn 0.000000 -1.000000 0.000000
vn 0.000000 1.000000 0.000000
vn 0.000000 -1.000000 0.000000
vn 0.000000 -1.000000 0.000000
vn 1.000000 0.000000 0.000000
vn 1.000000 0.000000 0.000000
vn 0.000000 -1.000000 0.000000
vn 0.000000 -1.000000 0.000000
vn -1.000000 0.000000 0.000000
vn -1.000000 0.000000 0.000000
vn -1.000000 0.000000 0.000000
vn -1.000000 0.000000 0.000000
vn 0.000000 -1.000000 0.000000
vn 0.000000 -1.000000 0.000000
vn -1.000000 0.000000 0.000000
vn -1.000000 0.000000 0.000000
vn 1.000000 0.000000 0.000000
vn 1.000000 0.000000 0.000000
vn -1.000000 0.000000 0.000000
vn -1.000000 0.000000 0.000000
vn 0.000000 1.000000 0.000000
vn 0.000000 1.000000 0.000000
s 1
g SingleWindow
usemtl initialShadingGroup
f 13/139/1 76/140/2 77/141/3 16/142/4
s 2
f 46/153/5 72/154/6 73/155/7 45/156/8
s 3
f 9/189/9 68/190/10 69/191/11 12/192/12
s 4
f 1/45/13 67/46/14 68/47/15 9/48/16
s off
f 3/1/17 8/2/18 11/3/19 10/4/20
s 5
f 69/59/21 70/60/22 7/61/23 12/62/24
s off
f 7/5/25 1/6/26 9/7/27 12/8/28
s 6
f 5/73/29 75/74/30 76/75/31 13/76/32
s off
f 6/9/33 4/10/34 15/11/35 14/12/36
s 7
f 77/87/37 78/88/38 2/89/39 16/90/40
s off
f 2/13/41 5/14/42 13/15/43 16/16/44
s 4
f 18/52/45 17/51/46 25/53/47 26/54/48
s 3
f 19/196/49 18/195/50 26/197/51 27/198/52
s 5
f 27/67/53 28/68/54 20/66/55 19/65/56
s 11
f 51/203/57 52/204/58 53/205/59 54/206/60
s 6
f 22/80/61 21/79/62 29/81/63 30/82/64
s 1
f 23/146/65 22/145/66 30/147/67 31/148/68
s 7
f 31/95/69 32/96/70 24/94/71 23/93/72
s 4
f 26/54/48 25/53/47 79/55/73 80/56/74
s 3
f 27/198/52 26/197/51 80/199/75 81/200/76
s 5
f 81/69/77 82/70/78 28/68/54 27/67/53
s 15
f 91/209/79 92/210/80 93/211/81 94/212/82
s 6
f 30/82/64 29/81/63 87/83/83 88/84/84
s 1
f 31/148/68 30/147/67 88/149/85 89/150/86
s 7
f 89/97/87 90/98/88 32/96/70 31/95/69
s 4
f 34/50/89 33/49/90 17/51/46 18/52/45
s 3
f 35/194/91 34/193/92 18/195/50 19/196/49
s 5
f 19/65/56 20/66/55 36/64/93 35/63/94
s 11
f 52/204/58 55/207/95 56/208/96 53/205/59
s 6
f 38/78/97 37/77/98 21/79/62 22/80/61
s 1
f 39/144/99 38/143/100 22/145/66 23/146/65
s 7
f 23/93/72 24/94/71 40/92/101 39/91/102
s 15
f 92/210/80 95/213/103 96/214/104 93/211/81
f 96/214/104 97/217/105 98/218/106 93/211/81
f 97/217/105 99/221/107 100/222/108 98/218/106
s 2
f 45/156/8 73/155/7 74/159/109 61/160/110
f 62/157/111 71/158/112 72/154/6 46/153/5
s 15
f 102/219/113 101/223/114 103/224/115 104/220/116
f 94/212/82 102/219/113 104/220/116 105/216/117
f 106/215/118 91/209/79 94/212/82 105/216/117
s 17
f 42/101/119 43/102/120 52/103/121 51/104/122
s 18
f 48/110/123 49/111/124 54/112/125 53/113/126
s 19
f 49/17/127 42/18/128 51/19/129 54/20/130
s 17
f 43/102/120 44/107/131 55/108/132 52/103/121
s 20
f 44/23/133 47/24/134 56/25/135 55/26/136
s 18
f 47/116/137 48/110/123 53/113/126 56/117/138
s 2
f 29/176/139 58/175/140 86/179/141 87/180/142
f 21/172/143 59/171/144 58/175/140 29/176/139
f 37/168/145 60/167/146 59/171/144 21/172/143
f 61/160/110 74/159/109 75/163/147 5/164/148
f 7/161/149 70/162/150 71/158/112 62/157/111
f 64/169/151 63/166/152 36/165/153 20/170/154
f 65/173/155 64/169/151 20/170/154 28/174/156
f 82/177/157 83/178/158 65/173/155 28/174/156
s 4
f 68/47/15 67/46/14 33/49/90 34/50/89
s 3
f 69/191/11 68/190/10 34/193/92 35/194/91
s 5
f 35/63/94 36/64/93 70/60/22 69/59/21
s 2
f 71/158/112 70/162/150 36/165/153 63/166/152
s 15
f 108/227/159 107/228/160 103/224/115 101/223/114
f 109/226/161 108/227/159 101/223/114 100/222/108
f 110/225/162 109/226/161 100/222/108 99/221/107
s 2
f 75/163/147 74/159/109 60/167/146 37/168/145
s 6
f 76/75/31 75/74/30 37/77/98 38/78/97
s 1
f 77/141/3 76/140/2 38/143/100 39/144/99
s 7
f 39/91/102 40/92/101 78/88/38 77/87/37
s 4
f 80/56/74 79/55/73 3/57/163 10/58/164
s 3
f 81/200/76 80/199/75 10/201/165 11/202/166
s 5
f 8/71/167 82/70/78 81/69/77 11/72/168
s 2
f 66/181/169 83/178/158 82/177/157 8/182/170
f 50/185/171 84/186/172 83/178/158 66/181/169
f 41/188/173 85/187/174 84/186/172 50/185/171
f 57/183/175 86/179/141 85/187/174 41/188/173
f 87/180/142 86/179/141 57/183/175 6/184/176
s 6
f 88/84/84 87/83/83 6/85/177 14/86/178
s 1
f 89/150/86 88/149/85 14/151/179 15/152/180
s 7
f 4/99/181 90/98/88 89/97/87 15/100/182
s 22
f 84/29/183 85/30/184 92/31/185 91/32/186
s 19
f 42/18/128 49/17/127 94/21/187 93/22/188
s 22
f 85/30/184 86/33/189 95/34/190 92/31/185
s 23
f 86/119/191 58/120/192 96/121/193 95/122/194
f 58/120/192 59/123/195 97/124/196 96/121/193
s 17
f 43/102/120 42/101/119 93/105/197 98/106/198
s 23
f 59/123/195 60/125/199 99/126/200 97/124/196
s 17
f 44/107/131 43/102/120 98/106/198 100/109/201
s 18
f 48/110/123 47/116/137 101/118/202 102/114/203
s 24
f 63/129/204 64/130/205 104/131/206 103/132/207
s 18
f 49/111/124 48/110/123 102/114/203 94/115/208
s 24
f 64/130/205 65/133/209 105/134/210 104/131/206
s 22
f 83/35/211 84/29/183 91/32/186 106/36/212
s 24
f 65/133/209 83/137/213 106/138/214 105/134/210
s 25
f 72/37/215 71/38/216 107/39/217 108/40/218
s 24
f 71/135/219 63/129/204 103/132/207 107/136/220
s 25
f 73/41/221 72/37/215 108/40/218 109/42/222
s 20
f 47/24/134 44/23/133 100/27/223 101/28/224
s 25
f 74/43/225 73/41/221 109/42/222 110/44/226
s 23
f 60/125/199 74/127/227 110/128/228 99/126/200
